<?xml version="1.0" standalone="no"?>
<!DOCTYPE svg PUBLIC "-//W3C//DTD SVG 1.1//EN" "http://www.w3.org/Graphics/SVG/1.1/DTD/svg11.dtd" >
<svg xmlns="http://www.w3.org/2000/svg">
<metadata>Generated by IcoMoon</metadata>
<defs>
<font id="forkawesome" horiz-adv-x="1024">
<font-face units-per-em="1024" ascent="877.8572825024438" descent="-146.14271749755622" />
<missing-glyph horiz-adv-x="1024" />
<glyph unicode="&#x20;" horiz-adv-x="114.11143695014661" d="" />
<glyph unicode="&#xe900;" glyph-name="flower-7" horiz-adv-x="1029" d="M696.397 678.039c73.654 68.406 149.391 50.017 210.511 27.995 79.083-28.492 112.527-84.545 114.743-203.679 1.669-89.648-106.693-203.878-312.683-206.649 176.506 31.513 318.423-101.829 320.091-191.474 2.215-119.131-62.438-234.719-228.312-231.899-87.537 1.488-208.327 70.354-210.353 272.578 6.108-146.94 4.035-320.085-207.468-332.595-124.958-7.391-201.225 101.354-203.813 188.494-2.024 68.137 19.609 153.412 188.348 221.773-258.747-110.324-365.472 12.733-367.379 115.262-2.216 119.131 40.914 196.375 168.407 213.488 117.538 15.777 284.241-165.746 216.404-100.052-56.362 54.582-140.22 127.185-122.489 243.054 10.23 66.845 47.531 141.253 172.688 143.582 109.026 2.029 220.123-67.641 170.562-366.371 0 0 13.909 135.133 90.743 206.492zM530.355 441.147c-7.729 57.778-47.002 219.394-110.646 278.759 52.41-86.733 63.767-275.026 67.366-288.765-38.654-3.382-74.67-38.356-80.606-76.507-44.869 22.363-189.606 63.6-287.857 21.39 159.684 19.395 259.758-56.55 285.029-72.319-0.471-37.49 20.507-73.223 46.409-94.678-53.934-57.392-135.023-184.514-113.387-290.691 20.418 158.393 137.604 251.192 156.176 268.184 47.267-7.946 100.538 6.353 123.753 33.519 62.124-23.986 197.546-98.864 270.127-223.883-22.812 150.986-247.235 259.068-243.804 266.465 15.332 34.883 8.012 69.752 3.351 84.374 77.831 44.756 143.367 96.537 201.728 186.724-78.277-73.329-127.249-107.41-219.667-147.874-23.888 37.212-57.085 51.282-97.973 55.301z" />
<glyph unicode="&#xe901;" glyph-name="plus-minus" horiz-adv-x="1076" d="M131.549-170.335c-12.14 5.169-22.917 15.445-29.222 27.861-3.527 6.936-4.515 12.773-4.542 26.645-0.033 15.355 0.698 19.118 5.614 27.755 7.155 12.648 823.974 875.076 834.125 880.692 5.329 2.949 11.989 4.079 24.174 4.102 14.589 0.027 18.119-0.775 26.646-6.073 26.407-16.397 36.037-49.197 22.736-77.433-6.583-13.985-821.188-874.343-834.439-881.311-13.225-6.955-31.836-7.878-45.085-2.237zM571.759-76.803c-19.463 9.287-33.633 31.666-33.633 53.119s14.17 43.832 33.633 53.119c9.323 4.447 12.749 4.513 235.43 4.513s226.109-0.067 235.431-4.513c19.463-9.287 33.633-31.666 33.633-53.119s-14.17-43.832-33.633-53.119c-9.323-4.447-12.749-4.513-235.431-4.513s-226.109 0.067-235.43 4.513zM248.729 291.662c-12.582 2.696-19.686 7.128-29.558 18.441-14.619 16.754-15.271 21.609-15.271 113.881v80.499l-80.405 0.698c-76.729 0.669-80.835 0.911-89.863 5.392-18.61 9.237-33.633 32.784-33.633 52.715 0 21.795 13.804 44.712 32.465 53.89 10.574 5.201 11.031 5.227 90.937 5.248l80.307 0.022 0.591 106.024c0.688 90.794-1.418 83.992 13.334 102.455 10.589 9.463 21.684 19.711 41.040 20.052 14.894 0.261 28.896-5.878 39.888-17.488 16.797-17.743 16.716-10.792 16.716-108.19v-102.852l179.726-0.044 10.627-5.227c18.659-9.177 32.465-32.093 32.465-53.889 0-19.931-15.024-43.479-33.633-52.715-9.086-4.513-12.942-4.722-99.23-5.38l-89.771-0.688-1.181-171.821-6.119-11.666c-11.908-22.702-35.671-34.445-59.409-29.36z" />
<glyph unicode="&#xe902;" glyph-name="thumb-tack-inclined-cancel" horiz-adv-x="888" d="M462.55 863.933c-28.826 1.166-57.606-12.997-73.341-39.169-22.887-38.067-10.29-88.573 27.778-111.461l-82.034-136.441-191.247 279.726-67.346-46.063 658.722-963.577 67.346 46.063-139.039 203.387c-2.855 54.992-25.564 105.057-65.797 129.246l167.416 278.427c38.067-22.887 88.573-10.289 111.461 27.778s10.34 88.573-27.728 111.461l-348.071 209.232c-11.896 7.152-25.017 10.861-38.119 11.391zM509.812 653.502c3.887 0.188 7.92-0.741 11.591-2.948 9.789-5.885 12.83-18.089 6.944-27.878l-105.166-174.91-25.23 36.87 95.573 158.973c3.678 6.118 9.808 9.579 16.287 9.892zM188.72 451.514c-66.109 1.57-142.788-40.075-183.003-106.964-11.444-19.034-5.145-44.261 13.889-55.705l219.674-132.094-117.206-288.619c-3.599-9.683-0.156-19.898 8.543-25.13l0.549-0.35c8.699-5.23 20.010-2.402 26.329 5.645l185.701 246.003 213.779-128.547-326.788 478.067c-13.009 4.709-26.938 7.349-41.467 7.694z" />
<glyph unicode="&#xe903;" glyph-name="thumb-tack-inclined" horiz-adv-x="888" d="M381.855 379.054l146.483 243.639c5.886 9.789 2.849 21.981-6.94 27.867s-21.981 2.849-27.867-6.94l-146.483-243.639c-5.886-9.789-2.849-21.981 6.94-27.867s21.981-2.849 27.867 6.94zM632.22-32.102c-11.444-19.035-36.698-25.323-55.732-13.879l-233.305 140.27-185.664-245.998c-6.319-8.048-17.639-10.866-26.339-5.636l-0.544 0.329c-8.702 5.23-12.174 15.463-8.575 25.146l117.25 288.611-219.712 132.097c-19.035 11.444-25.324 36.697-13.879 55.731 53.623 89.189 172.066 133.483 243.854 90.322l167.411 278.448c-38.069 22.888-50.648 73.395-27.76 111.464s73.395 50.647 111.463 27.759l348.056-209.261c38.070-22.888 50.647-73.394 27.759-111.463s-73.394-50.647-111.463-27.759l-167.411-278.448c71.787-43.161 88.216-168.544 34.594-257.733z" />
<glyph unicode="&#xe904;" glyph-name="thumb-tack-cancel" horiz-adv-x="696" d="M83.284 864l-83.284-50.26 154.878-256.648v-175.911c-79.732 0-154.628-94.19-154.628-193.248 0-21.141 17.529-38.669 38.669-38.669h244.057l45.864-292.969c1.813-9.664 9.67-16.287 19.335-16.287h0.6c9.662 0 17.527 7.822 18.735 17.486l30.826 291.77h2.648l182.656-302.661 83.284 50.31-583.64 967.087zM206.937 845.065l419.919-695.801h30.576c21.141 0 38.669 17.528 38.669 38.669 0 99.058-74.897 193.248-154.628 193.248v309.256c42.281 0 77.289 35.058 77.289 77.339s-35.007 77.289-77.289 77.289h-334.536z" />
<glyph unicode="&#xf000;" glyph-name="glass" horiz-adv-x="920" d="M919.509 731.468c0-16.603-13.169-33.207-24.619-44.659l-361.849-361.849v-439.715h183.215c20.040 0 36.643-16.603 36.643-36.643s-16.603-36.643-36.643-36.643h-513.001c-20.040 0-36.643 16.603-36.643 36.643s16.603 36.643 36.643 36.643h183.215v439.715l-361.849 361.849c-11.451 11.451-24.619 28.054-24.619 44.659 0 28.054 35.499 33.207 56.681 33.207h806.144c21.185 0 56.681-5.153 56.681-33.207z" />
<glyph unicode="&#xf001;" glyph-name="music" d="M879.431 709.711v-641.252c0-80.729-120.807-109.928-183.215-109.928s-183.215 29.2-183.215 109.928 120.807 109.928 183.215 109.928c37.788 0 75.577-6.871 109.928-22.33v307.457l-439.715-135.694v-405.935c0-80.729-120.807-109.928-183.215-109.928s-183.215 29.2-183.215 109.928 120.807 109.928 183.215 109.928c37.788 0 75.577-6.871 109.928-22.33v553.652c0 24.046 16.032 45.231 38.933 52.673l476.359 146.572c5.153 1.718 10.306 2.29 16.032 2.29 30.346 0 54.965-24.619 54.965-54.965z" />
<glyph unicode="&#xf002;" glyph-name="search" horiz-adv-x="953" d="M659.573 361.603c0 141.419-115.081 256.5-256.5 256.5s-256.5-115.081-256.5-256.5 115.081-256.5 256.5-256.5 256.5 115.081 256.5 256.5zM952.716-114.755c0-40.078-33.207-73.286-73.286-73.286-19.467 0-38.36 8.016-51.529 21.756l-196.384 195.811c-66.987-46.376-147.145-70.995-228.446-70.995-222.721 0-403.073 180.352-403.073 403.073s180.352 403.073 403.073 403.073 403.073-180.352 403.073-403.073c0-81.301-24.619-161.459-70.995-228.446l196.384-196.384c13.169-13.169 21.185-32.062 21.185-51.529z" />
<glyph unicode="&#xf003;" glyph-name="envelope-o" d="M952.716-23.148v439.715c-12.024-13.74-25.193-26.338-39.507-37.788-81.874-62.98-164.32-127.105-243.905-193.521-42.941-36.070-96.188-80.156-155.733-80.156h-1.145c-59.545 0-112.791 44.086-155.733 80.156-79.585 66.416-162.030 130.54-243.905 193.521-14.314 11.451-27.483 24.046-39.507 37.788v-439.715c0-9.733 8.587-18.322 18.322-18.322h842.788c9.733 0 18.322 8.587 18.322 18.322zM952.716 578.598c0 14.314 3.435 39.507-18.322 39.507h-842.788c-9.733 0-18.322-8.587-18.322-18.322 0-65.271 32.635-121.952 84.164-162.604 76.721-60.118 153.443-120.807 229.591-181.497 30.346-24.619 85.309-77.293 125.387-77.293h1.145c40.078 0 95.043 52.673 125.387 77.293 76.148 60.689 152.869 121.38 229.591 181.497 37.215 29.2 84.164 92.752 84.164 141.419zM1026.003 599.783v-622.93c0-50.384-41.223-91.607-91.607-91.607h-842.788c-50.384 0-91.607 41.223-91.607 91.607v622.93c0 50.384 41.223 91.607 91.607 91.607h842.788c50.384 0 91.607-41.223 91.607-91.607z" />
<glyph unicode="&#xf004;" glyph-name="heart" d="M513.001-114.755c-9.161 0-18.322 3.435-25.193 10.306l-357.269 344.673c-4.579 4.008-130.54 119.089-130.54 256.5 0 167.757 102.486 267.952 273.677 267.952 100.196 0 194.093-79.011 239.324-123.671 45.231 44.659 139.129 123.671 239.324 123.671 171.191 0 273.677-100.196 273.677-267.952 0-137.411-125.96-252.493-131.113-257.646l-356.696-343.527c-6.871-6.871-16.032-10.306-25.193-10.306z" />
<glyph unicode="&#xf005;" glyph-name="star" horiz-adv-x="953" d="M952.716 467.525c0-10.306-7.443-20.040-14.887-27.483l-207.835-202.682 49.239-286.273c0.573-4.008 0.573-7.443 0.573-11.451 0-14.887-6.871-28.627-23.475-28.627-8.016 0-16.032 2.863-22.901 6.871l-257.073 135.121-257.073-135.121c-7.443-4.008-14.887-6.871-22.901-6.871-16.603 0-24.046 13.74-24.046 28.627 0 4.008 0.573 7.443 1.145 11.451l49.239 286.273-208.407 202.682c-6.871 7.443-14.314 17.177-14.314 27.483 0 17.177 17.748 24.046 32.062 26.338l287.418 41.796 128.823 260.508c5.153 10.879 14.887 23.475 28.054 23.475s22.901-12.595 28.054-23.475l128.823-260.508 287.418-41.796c13.74-2.29 32.062-9.161 32.062-26.338z" />
<glyph unicode="&#xf006;" glyph-name="star-o" horiz-adv-x="953" d="M650.985 263.125l175.199 170.046-241.615 35.499-108.212 218.713-108.212-218.713-241.615-35.499 175.199-170.046-41.796-241.041 216.422 113.936 215.851-113.936zM952.716 467.525c0-10.306-7.443-20.040-14.887-27.483l-207.835-202.682 49.239-286.273c0.573-4.008 0.573-7.443 0.573-11.451 0-15.459-6.871-28.627-23.475-28.627-8.016 0-16.032 2.863-22.901 6.871l-257.073 135.121-257.073-135.121c-7.443-4.008-14.887-6.871-22.901-6.871-16.603 0-24.046 13.74-24.046 28.627 0 4.008 0.573 7.443 1.145 11.451l49.239 286.273-208.407 202.682c-6.871 7.443-14.314 17.177-14.314 27.483 0 17.177 17.748 24.046 32.062 26.338l287.418 41.796 128.823 260.508c5.153 10.879 14.887 23.475 28.054 23.475s22.901-12.595 28.054-23.475l128.823-260.508 287.418-41.796c13.74-2.29 32.062-9.161 32.062-26.338z" />
<glyph unicode="&#xf007;" glyph-name="user" horiz-adv-x="733" d="M732.86 36.969c0-83.593-54.965-151.725-121.952-151.725h-488.954c-66.987 0-121.952 68.133-121.952 151.725 0 150.58 37.215 324.634 187.223 324.634 46.376-45.231 109.357-73.286 179.207-73.286s132.831 28.054 179.207 73.286c150.006 0 187.223-174.054 187.223-324.634zM586.288 544.818c0-121.38-98.478-219.858-219.858-219.858s-219.858 98.478-219.858 219.858 98.478 219.858 219.858 219.858 219.858-98.478 219.858-219.858z" />
<glyph unicode="&#xf008;" glyph-name="film" horiz-adv-x="1099" d="M219.858-78.112v73.286c0 20.040-16.603 36.643-36.643 36.643h-73.286c-20.040 0-36.643-16.603-36.643-36.643v-73.286c0-20.040 16.603-36.643 36.643-36.643h73.286c20.040 0 36.643 16.603 36.643 36.643zM219.858 141.746v73.286c0 20.040-16.603 36.643-36.643 36.643h-73.286c-20.040 0-36.643-16.603-36.643-36.643v-73.286c0-20.040 16.603-36.643 36.643-36.643h73.286c20.040 0 36.643 16.603 36.643 36.643zM219.858 361.603v73.286c0 20.040-16.603 36.643-36.643 36.643h-73.286c-20.040 0-36.643-16.603-36.643-36.643v-73.286c0-20.040 16.603-36.643 36.643-36.643h73.286c20.040 0 36.643 16.603 36.643 36.643zM806.144-78.112v293.143c0 20.040-16.603 36.643-36.643 36.643h-439.715c-20.040 0-36.643-16.603-36.643-36.643v-293.143c0-20.040 16.603-36.643 36.643-36.643h439.715c20.040 0 36.643 16.603 36.643 36.643zM219.858 581.461v73.286c0 20.040-16.603 36.643-36.643 36.643h-73.286c-20.040 0-36.643-16.603-36.643-36.643v-73.286c0-20.040 16.603-36.643 36.643-36.643h73.286c20.040 0 36.643 16.603 36.643 36.643zM1026.003-78.112v73.286c0 20.040-16.603 36.643-36.643 36.643h-73.286c-20.040 0-36.643-16.603-36.643-36.643v-73.286c0-20.040 16.603-36.643 36.643-36.643h73.286c20.040 0 36.643 16.603 36.643 36.643zM806.144 361.603v293.143c0 20.040-16.603 36.643-36.643 36.643h-439.715c-20.040 0-36.643-16.603-36.643-36.643v-293.143c0-20.040 16.603-36.643 36.643-36.643h439.715c20.040 0 36.643 16.603 36.643 36.643zM1026.003 141.746v73.286c0 20.040-16.603 36.643-36.643 36.643h-73.286c-20.040 0-36.643-16.603-36.643-36.643v-73.286c0-20.040 16.603-36.643 36.643-36.643h73.286c20.040 0 36.643 16.603 36.643 36.643zM1026.003 361.603v73.286c0 20.040-16.603 36.643-36.643 36.643h-73.286c-20.040 0-36.643-16.603-36.643-36.643v-73.286c0-20.040 16.603-36.643 36.643-36.643h73.286c20.040 0 36.643 16.603 36.643 36.643zM1026.003 581.461v73.286c0 20.040-16.603 36.643-36.643 36.643h-73.286c-20.040 0-36.643-16.603-36.643-36.643v-73.286c0-20.040 16.603-36.643 36.643-36.643h73.286c20.040 0 36.643 16.603 36.643 36.643zM1099.289 673.069v-769.502c0-50.384-41.223-91.607-91.607-91.607h-916.075c-50.384 0-91.607 41.223-91.607 91.607v769.502c0 50.384 41.223 91.607 91.607 91.607h916.075c50.384 0 91.607-41.223 91.607-91.607z" />
<glyph unicode="&#xf009;" glyph-name="th-large" horiz-adv-x="953" d="M439.715 251.674v-219.858c0-40.078-33.207-73.286-73.286-73.286h-293.143c-40.078 0-73.286 33.207-73.286 73.286v219.858c0 40.078 33.207 73.286 73.286 73.286h293.143c40.078 0 73.286-33.207 73.286-73.286zM439.715 691.389v-219.858c0-40.078-33.207-73.286-73.286-73.286h-293.143c-40.078 0-73.286 33.207-73.286 73.286v219.858c0 40.078 33.207 73.286 73.286 73.286h293.143c40.078 0 73.286-33.207 73.286-73.286zM952.716 251.674v-219.858c0-40.078-33.207-73.286-73.286-73.286h-293.143c-40.078 0-73.286 33.207-73.286 73.286v219.858c0 40.078 33.207 73.286 73.286 73.286h293.143c40.078 0 73.286-33.207 73.286-73.286zM952.716 691.389v-219.858c0-40.078-33.207-73.286-73.286-73.286h-293.143c-40.078 0-73.286 33.207-73.286 73.286v219.858c0 40.078 33.207 73.286 73.286 73.286h293.143c40.078 0 73.286-33.207 73.286-73.286z" />
<glyph unicode="&#xf00a;" glyph-name="th" d="M293.143 123.424v-109.928c0-30.346-24.619-54.965-54.965-54.965h-183.215c-30.346 0-54.965 24.619-54.965 54.965v109.928c0 30.346 24.619 54.965 54.965 54.965h183.215c30.346 0 54.965-24.619 54.965-54.965zM293.143 416.568v-109.928c0-30.346-24.619-54.965-54.965-54.965h-183.215c-30.346 0-54.965 24.619-54.965 54.965v109.928c0 30.346 24.619 54.965 54.965 54.965h183.215c30.346 0 54.965-24.619 54.965-54.965zM659.573 123.424v-109.928c0-30.346-24.619-54.965-54.965-54.965h-183.215c-30.346 0-54.965 24.619-54.965 54.965v109.928c0 30.346 24.619 54.965 54.965 54.965h183.215c30.346 0 54.965-24.619 54.965-54.965zM293.143 709.711v-109.928c0-30.346-24.619-54.965-54.965-54.965h-183.215c-30.346 0-54.965 24.619-54.965 54.965v109.928c0 30.346 24.619 54.965 54.965 54.965h183.215c30.346 0 54.965-24.619 54.965-54.965zM659.573 416.568v-109.928c0-30.346-24.619-54.965-54.965-54.965h-183.215c-30.346 0-54.965 24.619-54.965 54.965v109.928c0 30.346 24.619 54.965 54.965 54.965h183.215c30.346 0 54.965-24.619 54.965-54.965zM1026.003 123.424v-109.928c0-30.346-24.619-54.965-54.965-54.965h-183.215c-30.346 0-54.965 24.619-54.965 54.965v109.928c0 30.346 24.619 54.965 54.965 54.965h183.215c30.346 0 54.965-24.619 54.965-54.965zM659.573 709.711v-109.928c0-30.346-24.619-54.965-54.965-54.965h-183.215c-30.346 0-54.965 24.619-54.965 54.965v109.928c0 30.346 24.619 54.965 54.965 54.965h183.215c30.346 0 54.965-24.619 54.965-54.965zM1026.003 416.568v-109.928c0-30.346-24.619-54.965-54.965-54.965h-183.215c-30.346 0-54.965 24.619-54.965 54.965v109.928c0 30.346 24.619 54.965 54.965 54.965h183.215c30.346 0 54.965-24.619 54.965-54.965zM1026.003 709.711v-109.928c0-30.346-24.619-54.965-54.965-54.965h-183.215c-30.346 0-54.965 24.619-54.965 54.965v109.928c0 30.346 24.619 54.965 54.965 54.965h183.215c30.346 0 54.965-24.619 54.965-54.965z" />
<glyph unicode="&#xf00b;" glyph-name="th-list" d="M293.143 123.424v-109.928c0-30.346-24.619-54.965-54.965-54.965h-183.215c-30.346 0-54.965 24.619-54.965 54.965v109.928c0 30.346 24.619 54.965 54.965 54.965h183.215c30.346 0 54.965-24.619 54.965-54.965zM293.143 416.568v-109.928c0-30.346-24.619-54.965-54.965-54.965h-183.215c-30.346 0-54.965 24.619-54.965 54.965v109.928c0 30.346 24.619 54.965 54.965 54.965h183.215c30.346 0 54.965-24.619 54.965-54.965zM1026.003 123.424v-109.928c0-30.346-24.619-54.965-54.965-54.965h-549.644c-30.346 0-54.965 24.619-54.965 54.965v109.928c0 30.346 24.619 54.965 54.965 54.965h549.644c30.346 0 54.965-24.619 54.965-54.965zM293.143 709.711v-109.928c0-30.346-24.619-54.965-54.965-54.965h-183.215c-30.346 0-54.965 24.619-54.965 54.965v109.928c0 30.346 24.619 54.965 54.965 54.965h183.215c30.346 0 54.965-24.619 54.965-54.965zM1026.003 416.568v-109.928c0-30.346-24.619-54.965-54.965-54.965h-549.644c-30.346 0-54.965 24.619-54.965 54.965v109.928c0 30.346 24.619 54.965 54.965 54.965h549.644c30.346 0 54.965-24.619 54.965-54.965zM1026.003 709.711v-109.928c0-30.346-24.619-54.965-54.965-54.965h-549.644c-30.346 0-54.965 24.619-54.965 54.965v109.928c0 30.346 24.619 54.965 54.965 54.965h549.644c30.346 0 54.965-24.619 54.965-54.965z" />
<glyph unicode="&#xf00c;" glyph-name="check" horiz-adv-x="888" d="M887.447 513.9c0-14.314-5.726-28.627-16.032-38.933l-492.39-492.39c-10.306-10.306-24.619-16.032-38.933-16.032s-28.627 5.726-38.933 16.032l-285.127 285.127c-10.306 10.306-16.032 24.619-16.032 38.933s5.726 28.627 16.032 38.933l77.866 77.866c10.306 10.306 24.619 16.032 38.933 16.032s28.627-5.726 38.933-16.032l168.328-168.901 375.59 376.163c10.306 10.306 24.619 16.032 38.933 16.032s28.627-5.726 38.933-16.032l77.866-77.866c10.306-10.306 16.032-24.619 16.032-38.933z" />
<glyph unicode="&#xf00d;" glyph-name="times" horiz-adv-x="681" d="M680.185 81.055c0-14.314-5.726-28.627-16.032-38.933l-77.866-77.866c-10.306-10.306-24.619-16.032-38.933-16.032s-28.627 5.726-38.933 16.032l-168.328 168.328-168.328-168.328c-10.306-10.306-24.619-16.032-38.933-16.032s-28.627 5.726-38.933 16.032l-77.866 77.866c-10.306 10.306-16.032 24.619-16.032 38.933s5.726 28.627 16.032 38.933l168.328 168.328-168.328 168.328c-10.306 10.306-16.032 24.619-16.032 38.933s5.726 28.627 16.032 38.933l77.866 77.866c10.306 10.306 24.619 16.032 38.933 16.032s28.627-5.726 38.933-16.032l168.328-168.328 168.328 168.328c10.306 10.306 24.619 16.032 38.933 16.032s28.627-5.726 38.933-16.032l77.866-77.866c10.306-10.306 16.032-24.619 16.032-38.933s-5.726-28.627-16.032-38.933l-168.328-168.328 168.328-168.328c10.306-10.306 16.032-24.619 16.032-38.933z" />
<glyph unicode="&#xf00e;" glyph-name="search-plus" horiz-adv-x="953" d="M586.288 379.924v-36.643c0-9.733-8.587-18.322-18.322-18.322h-128.25v-128.25c0-9.733-8.587-18.322-18.322-18.322h-36.643c-9.733 0-18.322 8.587-18.322 18.322v128.25h-128.25c-9.733 0-18.322 8.587-18.322 18.322v36.643c0 9.733 8.587 18.322 18.322 18.322h128.25v128.25c0 9.733 8.587 18.322 18.322 18.322h36.643c9.733 0 18.322-8.587 18.322-18.322v-128.25h128.25c9.733 0 18.322-8.587 18.322-18.322zM659.573 361.603c0 141.419-115.081 256.5-256.5 256.5s-256.5-115.081-256.5-256.5 115.081-256.5 256.5-256.5 256.5 115.081 256.5 256.5zM952.716-114.755c0-40.651-32.635-73.286-73.286-73.286-19.467 0-38.36 8.016-51.529 21.756l-196.384 195.811c-66.987-46.376-147.145-70.995-228.446-70.995-222.721 0-403.073 180.352-403.073 403.073s180.352 403.073 403.073 403.073 403.073-180.352 403.073-403.073c0-81.301-24.619-161.459-70.995-228.446l196.384-196.384c13.169-13.169 21.185-32.062 21.185-51.529z" />
<glyph unicode="&#xf010;" glyph-name="search-minus" horiz-adv-x="953" d="M586.288 379.924v-36.643c0-9.733-8.587-18.322-18.322-18.322h-329.787c-9.733 0-18.322 8.587-18.322 18.322v36.643c0 9.733 8.587 18.322 18.322 18.322h329.787c9.733 0 18.322-8.587 18.322-18.322zM659.573 361.603c0 141.419-115.081 256.5-256.5 256.5s-256.5-115.081-256.5-256.5 115.081-256.5 256.5-256.5 256.5 115.081 256.5 256.5zM952.716-114.755c0-40.651-32.635-73.286-73.286-73.286-19.467 0-38.36 8.016-51.529 21.756l-196.384 195.811c-66.987-46.376-147.145-70.995-228.446-70.995-222.721 0-403.073 180.352-403.073 403.073s180.352 403.073 403.073 403.073 403.073-180.352 403.073-403.073c0-81.301-24.619-161.459-70.995-228.446l196.384-196.384c13.169-13.169 21.185-32.062 21.185-51.529z" />
<glyph unicode="&#xf011;" glyph-name="power-off" d="M879.431 324.961c0-242.187-197.529-439.715-439.715-439.715s-439.715 197.529-439.715 439.715c0 139.129 64.126 267.379 175.772 350.971 32.635 24.619 78.44 18.322 102.486-14.314 24.619-32.062 17.748-78.44-14.314-102.486-74.432-56.11-117.373-141.419-117.373-234.171 0-161.459 131.686-293.143 293.143-293.143s293.143 131.686 293.143 293.143c0 92.752-42.941 178.062-117.373 234.171-32.062 24.046-38.933 70.424-14.314 102.486 24.046 32.635 70.424 38.933 102.486 14.314 111.647-83.593 175.772-211.843 175.772-350.971zM513.001 764.676v-366.429c0-40.078-33.207-73.286-73.286-73.286s-73.286 33.207-73.286 73.286v366.429c0 40.078 33.207 73.286 73.286 73.286s73.286-33.207 73.286-73.286z" />
<glyph unicode="&#xf012;" glyph-name="signal" d="M146.572 13.495v-109.928c0-10.306-8.016-18.322-18.322-18.322h-109.928c-10.306 0-18.322 8.016-18.322 18.322v109.928c0 10.306 8.016 18.322 18.322 18.322h109.928c10.306 0 18.322-8.016 18.322-18.322zM366.429 86.781v-183.215c0-10.306-8.016-18.322-18.322-18.322h-109.928c-10.306 0-18.322 8.016-18.322 18.322v183.215c0 10.306 8.016 18.322 18.322 18.322h109.928c10.306 0 18.322-8.016 18.322-18.322zM586.288 233.352v-329.787c0-10.306-8.016-18.322-18.322-18.322h-109.928c-10.306 0-18.322 8.016-18.322 18.322v329.787c0 10.306 8.016 18.322 18.322 18.322h109.928c10.306 0 18.322-8.016 18.322-18.322zM806.144 453.211v-549.644c0-10.306-8.016-18.322-18.322-18.322h-109.928c-10.306 0-18.322 8.016-18.322 18.322v549.644c0 10.306 8.016 18.322 18.322 18.322h109.928c10.306 0 18.322-8.016 18.322-18.322zM1026.003 746.354v-842.788c0-10.306-8.016-18.322-18.322-18.322h-109.928c-10.306 0-18.322 8.016-18.322 18.322v842.788c0 10.306 8.016 18.322 18.322 18.322h109.928c10.306 0 18.322-8.016 18.322-18.322z" />
<glyph unicode="&#xf013;" glyph-name="cog" d="M586.288 324.961c0 80.729-65.842 146.572-146.572 146.572s-146.572-65.842-146.572-146.572 65.842-146.572 146.572-146.572 146.572 65.842 146.572 146.572zM879.431 387.369v-127.105c0-8.587-6.871-18.893-16.032-20.611l-105.92-16.032c-6.298-18.322-13.169-35.499-22.33-52.102 19.467-28.054 40.078-53.247 61.263-79.011 3.435-4.008 5.726-9.161 5.726-14.314s-1.718-9.161-5.153-13.169c-13.74-18.322-91.035-102.486-110.502-102.486-5.153 0-10.306 2.29-14.887 5.153l-79.011 61.834c-16.603-8.587-34.354-16.032-52.102-21.756-4.008-34.925-7.443-72.14-16.603-106.494-2.29-9.161-10.306-16.032-20.611-16.032h-127.105c-10.306 0-19.467 7.443-20.611 17.177l-16.032 105.349c-17.748 5.726-34.925 12.595-51.529 21.185l-80.729-61.263c-4.008-3.435-9.161-5.153-14.314-5.153s-10.306 2.29-14.314 6.298c-30.346 27.483-70.424 62.98-94.47 96.188-2.863 4.008-4.008 8.587-4.008 13.169 0 5.153 1.718 9.161 4.579 13.169 19.467 26.338 40.651 51.529 60.118 78.44-9.733 18.322-17.748 37.215-23.475 56.681l-104.775 15.459c-9.733 1.718-16.603 10.879-16.603 20.611v127.105c0 8.587 6.871 18.893 15.459 20.611l106.494 16.032c5.726 18.322 13.169 35.499 22.33 52.673-19.467 27.483-40.078 53.247-61.263 79.011-3.435 4.008-5.726 8.587-5.726 13.74s2.29 9.161 5.153 13.169c13.74 18.893 91.035 102.486 110.502 102.486 5.153 0 10.306-2.29 14.887-5.726l79.011-61.263c16.603 8.587 34.354 16.032 52.102 21.756 4.008 34.925 7.443 72.14 16.603 106.494 2.29 9.161 10.306 16.032 20.611 16.032h127.105c10.306 0 19.467-7.443 20.611-17.177l16.032-105.349c17.748-5.726 34.925-12.595 51.529-21.185l81.301 61.263c3.435 3.435 8.587 5.153 13.74 5.153s10.306-2.29 14.314-5.726c30.346-28.054 70.424-63.553 94.47-97.333 2.863-3.435 4.008-8.016 4.008-12.595 0-5.153-1.718-9.161-4.579-13.169-19.467-26.338-40.651-51.529-60.118-78.44 9.733-18.322 17.748-37.215 23.475-56.11l104.775-16.032c9.733-1.718 16.603-10.879 16.603-20.611z" />
<glyph unicode="&#xf014;" glyph-name="trash-o" horiz-adv-x="807" d="M293.143 416.568v-329.787c0-10.306-8.016-18.322-18.322-18.322h-36.643c-10.306 0-18.322 8.016-18.322 18.322v329.787c0 10.306 8.016 18.322 18.322 18.322h36.643c10.306 0 18.322-8.016 18.322-18.322zM439.715 416.568v-329.787c0-10.306-8.016-18.322-18.322-18.322h-36.643c-10.306 0-18.322 8.016-18.322 18.322v329.787c0 10.306 8.016 18.322 18.322 18.322h36.643c10.306 0 18.322-8.016 18.322-18.322zM586.288 416.568v-329.787c0-10.306-8.016-18.322-18.322-18.322h-36.643c-10.306 0-18.322 8.016-18.322 18.322v329.787c0 10.306 8.016 18.322 18.322 18.322h36.643c10.306 0 18.322-8.016 18.322-18.322zM659.573 2.044v542.774h-513.001v-542.774c0-27.483 15.459-43.513 18.322-43.513h476.359c2.863 0 18.322 16.032 18.322 43.513zM274.822 618.104h256.5l-27.483 66.987c-1.718 2.29-6.871 5.726-9.733 6.298h-181.497c-3.435-0.573-8.016-4.008-9.733-6.298zM806.144 599.783v-36.643c0-10.306-8.016-18.322-18.322-18.322h-54.965v-542.774c0-62.98-41.223-116.799-91.607-116.799h-476.359c-50.384 0-91.607 51.529-91.607 114.51v545.064h-54.965c-10.306 0-18.322 8.016-18.322 18.322v36.643c0 10.306 8.016 18.322 18.322 18.322h176.917l40.078 95.615c11.451 28.054 45.804 50.957 76.148 50.957h183.215c30.346 0 64.697-22.901 76.148-50.957l40.078-95.615h176.917c10.306 0 18.322-8.016 18.322-18.322z" />
<glyph unicode="&#xf015;" glyph-name="home" horiz-adv-x="923" d="M791.259 269.996v-274.822c0-20.040-16.603-36.643-36.643-36.643h-219.858v219.858h-146.572v-219.858h-219.858c-20.040 0-36.643 16.603-36.643 36.643v274.822c0 1.145 0.573 2.29 0.573 3.435l329.213 271.387 329.213-271.387c0.573-1.145 0.573-2.29 0.573-3.435zM918.937 309.501l-35.499-42.368c-2.863-3.435-7.443-5.726-12.024-6.298h-1.718c-4.579 0-8.587 1.145-12.024 4.008l-396.203 330.359-396.203-330.359c-4.008-2.863-8.587-4.579-13.74-4.008-4.579 0.573-9.161 2.863-12.024 6.298l-35.499 42.368c-6.298 7.443-5.153 19.467 2.29 25.764l411.661 342.956c24.046 20.040 62.98 20.040 87.027 0l139.701-116.799v111.647c0 10.306 8.016 18.322 18.322 18.322h109.928c10.306 0 18.322-8.016 18.322-18.322v-233.599l125.387-104.204c7.443-6.298 8.587-18.322 2.29-25.764z" />
<glyph unicode="&#xf016;" glyph-name="file-o" d="M840.498 620.394c21.185-21.185 38.933-63.553 38.933-93.898v-659.573c0-30.346-24.619-54.965-54.965-54.965h-769.502c-30.346 0-54.965 24.619-54.965 54.965v916.075c0 30.346 24.619 54.965 54.965 54.965h513.001c30.346 0 72.713-17.748 93.898-38.933zM586.288 760.096v-215.277h215.277c-3.435 9.733-8.587 19.467-12.595 23.475l-179.207 179.207c-4.008 4.008-13.74 9.161-23.475 12.595zM806.144-114.755v586.288h-238.179c-30.346 0-54.965 24.619-54.965 54.965v238.179h-439.715v-879.431h732.86z" />
<glyph unicode="&#xf017;" glyph-name="clock-o" d="M513.001 526.496v-256.5c0-10.306-8.016-18.322-18.322-18.322h-183.215c-10.306 0-18.322 8.016-18.322 18.322v36.643c0 10.306 8.016 18.322 18.322 18.322h128.25v201.537c0 10.306 8.016 18.322 18.322 18.322h36.643c10.306 0 18.322-8.016 18.322-18.322zM751.181 324.961c0 171.765-139.701 311.465-311.465 311.465s-311.465-139.701-311.465-311.465 139.701-311.465 311.465-311.465 311.465 139.701 311.465 311.465zM879.431 324.961c0-242.76-196.955-439.715-439.715-439.715s-439.715 196.955-439.715 439.715 196.955 439.715 439.715 439.715 439.715-196.955 439.715-439.715z" />
<glyph unicode="&#xf018;" glyph-name="road" horiz-adv-x="1042" d="M607.472 267.706v2.29l-13.74 183.215c-0.573 10.306-9.733 18.322-19.467 18.322h-106.494c-9.733 0-18.893-8.016-19.467-18.322l-13.74-183.215v-2.29c-0.573-9.161 8.016-16.032 16.603-16.032h139.701c8.587 0 17.177 6.871 16.603 16.032zM1042.035 0.327c0-16.603-4.579-41.796-26.338-41.796h-403.073c9.733 0 17.748 8.016 17.177 18.322l-11.451 146.572c-0.573 10.306-9.733 18.322-19.467 18.322h-155.733c-9.733 0-18.893-8.016-19.467-18.322l-11.451-146.572c-0.573-10.306 7.443-18.322 17.177-18.322h-403.073c-21.756 0-26.338 25.193-26.338 41.796 0 22.901 6.298 45.804 14.887 66.416l238.752 597.738c5.726 14.314 21.185 26.909 36.643 26.909h194.093c-9.733 0-18.893-8.016-19.467-18.322l-8.587-109.928c-0.573-10.306 6.871-18.322 17.177-18.322h95.043c10.306 0 17.748 8.016 17.177 18.322l-8.587 109.928c-0.573 10.306-9.733 18.322-19.467 18.322h194.093c15.459 0 30.917-12.595 36.643-26.909l238.752-597.738c8.587-20.611 14.887-43.513 14.887-66.416z" />
<glyph unicode="&#xf019;" glyph-name="download" horiz-adv-x="953" d="M732.86 68.46c0 20.040-16.603 36.643-36.643 36.643s-36.643-16.603-36.643-36.643 16.603-36.643 36.643-36.643 36.643 16.603 36.643 36.643zM879.431 68.46c0 20.040-16.603 36.643-36.643 36.643s-36.643-16.603-36.643-36.643 16.603-36.643 36.643-36.643 36.643 16.603 36.643 36.643zM952.716 196.71v-183.215c0-30.346-24.619-54.965-54.965-54.965h-842.788c-30.346 0-54.965 24.619-54.965 54.965v183.215c0 30.346 24.619 54.965 54.965 54.965h266.234l77.293-77.866c21.185-20.611 48.666-32.062 77.866-32.062s56.681 11.451 77.866 32.062l77.866 77.866h265.661c30.346 0 54.965-24.619 54.965-54.965zM766.64 522.489c5.726-13.74 2.863-29.772-8.016-40.078l-256.5-256.5c-6.871-7.443-16.603-10.879-25.764-10.879s-18.893 3.435-25.764 10.879l-256.5 256.5c-10.879 10.306-13.74 26.338-8.016 40.078 5.726 13.169 18.893 22.33 33.78 22.33h146.572v256.5c0 20.040 16.603 36.643 36.643 36.643h146.572c20.040 0 36.643-16.603 36.643-36.643v-256.5h146.572c14.887 0 28.054-9.161 33.78-22.33z" />
<glyph unicode="&#xf01a;" glyph-name="arrow-circle-o-down" d="M641.252 306.639c0-5.153-2.29-9.733-5.726-13.74l-182.642-182.642c-4.008-3.435-8.587-5.153-13.169-5.153s-9.161 1.718-13.169 5.153l-183.215 183.215c-5.153 5.726-6.871 13.169-4.008 20.040s9.733 11.451 17.177 11.451h109.928v201.537c0 10.306 8.016 18.322 18.322 18.322h109.928c10.306 0 18.322-8.016 18.322-18.322v-201.537h109.928c10.306 0 18.322-8.016 18.322-18.322zM439.715 636.426c-171.765 0-311.465-139.701-311.465-311.465s139.701-311.465 311.465-311.465 311.465 139.701 311.465 311.465-139.701 311.465-311.465 311.465zM879.431 324.961c0-242.76-196.955-439.715-439.715-439.715s-439.715 196.955-439.715 439.715 196.955 439.715 439.715 439.715 439.715-196.955 439.715-439.715z" />
<glyph unicode="&#xf01b;" glyph-name="arrow-circle-o-up" d="M640.106 336.412c-2.863-6.871-9.733-11.451-17.177-11.451h-109.928v-201.537c0-10.306-8.016-18.322-18.322-18.322h-109.928c-10.306 0-18.322 8.016-18.322 18.322v201.537h-109.928c-10.306 0-18.322 8.016-18.322 18.322 0 5.153 2.29 9.733 5.726 13.74l182.642 182.642c4.008 3.435 8.587 5.153 13.169 5.153s9.161-1.718 13.169-5.153l183.215-183.215c5.153-5.726 6.871-13.169 4.008-20.040zM439.715 636.426c-171.765 0-311.465-139.701-311.465-311.465s139.701-311.465 311.465-311.465 311.465 139.701 311.465 311.465-139.701 311.465-311.465 311.465zM879.431 324.961c0-242.76-196.955-439.715-439.715-439.715s-439.715 196.955-439.715 439.715 196.955 439.715 439.715 439.715 439.715-196.955 439.715-439.715z" />
<glyph unicode="&#xf01c;" glyph-name="inbox" d="M585.714 288.318h180.925c-1.145 2.863-1.718 6.298-2.863 9.161l-121.38 283.983h-405.362l-121.38-283.983c-1.145-2.863-1.718-6.298-2.863-9.161h180.925l54.392-109.928h183.215zM879.431 271.141v-275.967c0-20.040-16.603-36.643-36.643-36.643h-806.144c-20.040 0-36.643 16.603-36.643 36.643v275.967c0 20.611 6.298 50.957 14.314 70.424l136.266 316.046c8.016 18.893 30.917 33.78 50.957 33.78h476.359c20.040 0 42.941-14.887 50.957-33.78l136.266-316.046c8.016-19.467 14.314-49.812 14.314-70.424z" />
<glyph unicode="&#xf01d;" glyph-name="play-circle-o" d="M677.894 324.961c0-13.169-6.871-25.193-18.322-31.491l-311.465-183.215c-5.726-3.435-12.024-5.153-18.322-5.153s-12.595 1.718-18.322 4.579c-11.451 6.871-18.322 18.893-18.322 32.062v366.429c0 13.169 6.871 25.193 18.322 32.062 11.451 6.298 25.764 6.298 36.643-0.573l311.465-183.215c11.451-6.298 18.322-18.322 18.322-31.491zM751.181 324.961c0 171.765-139.701 311.465-311.465 311.465s-311.465-139.701-311.465-311.465 139.701-311.465 311.465-311.465 311.465 139.701 311.465 311.465zM879.431 324.961c0-242.76-196.955-439.715-439.715-439.715s-439.715 196.955-439.715 439.715 196.955 439.715 439.715 439.715 439.715-196.955 439.715-439.715z" />
<glyph unicode="&#xf01e;" glyph-name="repeat" d="M879.431 691.389v-256.5c0-20.040-16.603-36.643-36.643-36.643h-256.5c-14.887 0-28.054 9.161-33.78 22.901-5.726 13.169-2.863 29.2 8.016 39.507l79.011 79.011c-53.82 49.812-124.815 78.44-199.819 78.44-161.459 0-293.143-131.686-293.143-293.143s131.686-293.143 293.143-293.143c91.035 0 175.199 41.223 231.309 113.936 2.863 4.008 8.016 6.298 13.169 6.871 5.153 0 10.306-1.718 14.314-5.153l78.44-79.011c6.871-6.298 6.871-17.177 1.145-24.619-83.593-100.767-207.261-158.596-338.374-158.596-242.187 0-439.715 197.529-439.715 439.715s197.529 439.715 439.715 439.715c112.791 0 222.148-45.231 302.877-121.38l74.432 73.858c10.306 10.879 26.338 13.74 40.078 8.016 13.169-5.726 22.33-18.893 22.33-33.78z" />
<glyph unicode="&#xf021;" glyph-name="refresh" d="M865.118 233.352c0-1.145 0-2.863-0.573-4.008-48.666-202.682-215.851-344.101-427.12-344.101-111.647 0-219.858 44.086-301.159 121.38l-73.858-73.858c-6.871-6.871-16.032-10.879-25.764-10.879-20.040 0-36.643 16.603-36.643 36.643v256.5c0 20.040 16.603 36.643 36.643 36.643h256.5c20.040 0 36.643-16.603 36.643-36.643 0-9.733-4.008-18.893-10.879-25.764l-78.44-78.44c53.82-50.384 125.387-79.011 199.246-79.011 101.913 0 196.384 52.673 249.631 139.701 13.74 22.33 20.611 44.086 30.346 66.987 2.863 8.016 8.587 13.169 17.177 13.169h109.928c10.306 0 18.322-8.587 18.322-18.322zM879.431 691.389v-256.5c0-20.040-16.603-36.643-36.643-36.643h-256.5c-20.040 0-36.643 16.603-36.643 36.643 0 9.733 4.008 18.893 10.879 25.764l79.011 79.011c-54.392 50.384-125.96 78.44-199.819 78.44-101.913 0-196.384-52.673-249.631-139.701-13.74-22.33-20.611-44.086-30.346-66.987-2.863-8.016-8.587-13.169-17.177-13.169h-113.936c-10.306 0-18.322 8.587-18.322 18.322v4.008c49.239 203.253 218.14 344.101 429.409 344.101 112.219 0 221.575-44.659 302.877-121.38l74.432 73.858c6.871 6.871 16.032 10.879 25.764 10.879 20.040 0 36.643-16.603 36.643-36.643z" />
<glyph unicode="&#xf022;" glyph-name="list-alt" d="M219.858 160.068v-36.643c0-9.733-8.587-18.322-18.322-18.322h-36.643c-9.733 0-18.322 8.587-18.322 18.322v36.643c0 9.733 8.587 18.322 18.322 18.322h36.643c9.733 0 18.322-8.587 18.322-18.322zM219.858 306.639v-36.643c0-9.733-8.587-18.322-18.322-18.322h-36.643c-9.733 0-18.322 8.587-18.322 18.322v36.643c0 9.733 8.587 18.322 18.322 18.322h36.643c9.733 0 18.322-8.587 18.322-18.322zM219.858 453.211v-36.643c0-9.733-8.587-18.322-18.322-18.322h-36.643c-9.733 0-18.322 8.587-18.322 18.322v36.643c0 9.733 8.587 18.322 18.322 18.322h36.643c9.733 0 18.322-8.587 18.322-18.322zM879.431 160.068v-36.643c0-9.733-8.587-18.322-18.322-18.322h-549.644c-9.733 0-18.322 8.587-18.322 18.322v36.643c0 9.733 8.587 18.322 18.322 18.322h549.644c9.733 0 18.322-8.587 18.322-18.322zM879.431 306.639v-36.643c0-9.733-8.587-18.322-18.322-18.322h-549.644c-9.733 0-18.322 8.587-18.322 18.322v36.643c0 9.733 8.587 18.322 18.322 18.322h549.644c9.733 0 18.322-8.587 18.322-18.322zM879.431 453.211v-36.643c0-9.733-8.587-18.322-18.322-18.322h-549.644c-9.733 0-18.322 8.587-18.322 18.322v36.643c0 9.733 8.587 18.322 18.322 18.322h549.644c9.733 0 18.322-8.587 18.322-18.322zM952.716 50.138v476.359c0 9.733-8.587 18.322-18.322 18.322h-842.788c-9.733 0-18.322-8.587-18.322-18.322v-476.359c0-9.733 8.587-18.322 18.322-18.322h842.788c9.733 0 18.322 8.587 18.322 18.322zM1026.003 673.069v-622.93c0-50.384-41.223-91.607-91.607-91.607h-842.788c-50.384 0-91.607 41.223-91.607 91.607v622.93c0 50.384 41.223 91.607 91.607 91.607h842.788c50.384 0 91.607-41.223 91.607-91.607z" />
<glyph unicode="&#xf023;" glyph-name="lock" horiz-adv-x="660" d="M183.215 398.246h293.143v109.928c0 80.729-65.842 146.572-146.572 146.572s-146.572-65.842-146.572-146.572v-109.928zM659.573 343.282v-329.787c0-30.346-24.619-54.965-54.965-54.965h-549.644c-30.346 0-54.965 24.619-54.965 54.965v329.787c0 30.346 24.619 54.965 54.965 54.965h18.322v109.928c0 140.846 115.655 256.5 256.5 256.5s256.5-115.655 256.5-256.5v-109.928h18.322c30.346 0 54.965-24.619 54.965-54.965z" />
<glyph unicode="&#xf024;" glyph-name="flag" horiz-adv-x="989" d="M146.572 691.389c0-26.338-14.314-49.812-36.643-62.98v-724.844c0-9.733-8.587-18.322-18.322-18.322h-36.643c-9.733 0-18.322 8.587-18.322 18.322v724.844c-22.33 13.169-36.643 36.643-36.643 62.98 0 40.651 32.635 73.286 73.286 73.286s73.286-32.635 73.286-73.286zM989.36 654.748v-436.853c0-21.185-13.169-29.2-29.772-37.788-64.697-34.925-136.266-66.416-211.269-66.416-105.349 0-155.733 80.156-280.548 80.156-91.035 0-186.65-41.223-265.661-83.593-6.298-3.435-12.024-5.153-18.893-5.153-20.040 0-36.643 16.603-36.643 36.643v424.829c0 13.74 6.871 23.475 17.748 31.491 13.74 9.161 30.346 17.177 45.231 24.619 72.14 36.643 159.741 68.705 241.041 68.705 89.89 0 160.313-29.772 239.897-66.987 16.032-8.016 32.635-10.879 50.384-10.879 89.89 0 186.65 77.866 211.843 77.866 20.040 0 36.643-16.603 36.643-36.643z" />
<glyph unicode="&#xf025;" glyph-name="headphones" horiz-adv-x="953" d="M952.716 330.685c0-62.408-11.451-123.097-34.354-179.78l-11.451-28.054-105.92-18.893c-16.603-62.408-73.286-108.783-141.419-108.783v-18.322c0-10.306-8.016-18.322-18.322-18.322h-36.643c-10.306 0-18.322 8.016-18.322 18.322v329.787c0 10.306 8.016 18.322 18.322 18.322h36.643c10.306 0 18.322-8.016 18.322-18.322v-18.322c54.965 0 102.486-30.346 127.679-75.003l38.933 6.871c10.879 35.499 16.603 72.14 16.603 110.502 0 172.909-171.191 324.061-366.429 324.061s-366.429-151.152-366.429-324.061c0-38.36 5.726-75.003 16.603-110.502l38.933-6.871c25.193 44.659 72.713 75.003 127.679 75.003v18.322c0 10.306 8.016 18.322 18.322 18.322h36.643c10.306 0 18.322-8.016 18.322-18.322v-329.787c0-10.306-8.016-18.322-18.322-18.322h-36.643c-10.306 0-18.322 8.016-18.322 18.322v18.322c-68.133 0-124.815 46.376-141.419 108.783l-105.92 18.893-11.451 28.054c-22.901 56.681-34.354 117.373-34.354 179.78 0 235.317 218.14 433.99 476.359 433.99s476.359-198.674 476.359-433.99z" />
<glyph unicode="&#xf026;" glyph-name="volume-off" horiz-adv-x="439" d="M439.715 636.426v-622.93c0-20.040-16.603-36.643-36.643-36.643-9.733 0-18.893 4.008-25.764 10.879l-190.658 190.658h-150.006c-20.040 0-36.643 16.603-36.643 36.643v219.858c0 20.040 16.603 36.643 36.643 36.643h150.006l190.658 190.658c6.871 6.871 16.032 10.879 25.764 10.879 20.040 0 36.643-16.603 36.643-36.643z" />
<glyph unicode="&#xf027;" glyph-name="volume-down" horiz-adv-x="660" d="M439.715 636.426v-622.93c0-20.040-16.603-36.643-36.643-36.643-9.733 0-18.893 4.008-25.764 10.879l-190.658 190.658h-150.006c-20.040 0-36.643 16.603-36.643 36.643v219.858c0 20.040 16.603 36.643 36.643 36.643h150.006l190.658 190.658c6.871 6.871 16.032 10.879 25.764 10.879 20.040 0 36.643-16.603 36.643-36.643zM659.573 324.961c0-57.255-34.925-112.791-88.745-134.548-4.579-2.29-9.733-2.863-14.314-2.863-20.040 0-36.643 16.032-36.643 36.643 0 43.513 66.416 31.491 66.416 100.767s-66.416 57.255-66.416 100.767c0 20.611 16.603 36.643 36.643 36.643 4.579 0 9.733-0.573 14.314-2.863 53.82-21.185 88.745-77.293 88.745-134.548z" />
<glyph unicode="&#xf028;" glyph-name="volume-up" horiz-adv-x="953" d="M439.715 636.426v-622.93c0-20.040-16.603-36.643-36.643-36.643-9.733 0-18.893 4.008-25.764 10.879l-190.658 190.658h-150.006c-20.040 0-36.643 16.603-36.643 36.643v219.858c0 20.040 16.603 36.643 36.643 36.643h150.006l190.658 190.658c6.871 6.871 16.032 10.879 25.764 10.879 20.040 0 36.643-16.603 36.643-36.643zM659.573 324.961c0-57.255-34.925-112.791-88.745-134.548-4.579-2.29-9.733-2.863-14.314-2.863-20.040 0-36.643 16.032-36.643 36.643 0 43.513 66.416 31.491 66.416 100.767s-66.416 57.255-66.416 100.767c0 20.611 16.603 36.643 36.643 36.643 4.579 0 9.733-0.573 14.314-2.863 53.82-21.185 88.745-77.293 88.745-134.548zM806.144 324.961c0-116.227-69.85-224.438-177.489-269.669-4.579-1.718-9.733-2.863-14.314-2.863-20.611 0-37.215 16.603-37.215 36.643 0 16.032 9.161 26.909 22.33 33.78 15.459 8.016 29.772 14.887 43.513 25.193 56.681 41.223 89.89 107.066 89.89 176.917s-33.207 135.694-89.89 176.917c-13.74 10.306-28.054 17.177-43.513 25.193-13.169 6.871-22.33 17.748-22.33 33.78 0 20.040 16.603 36.643 36.643 36.643 5.153 0 10.306-1.145 14.887-2.863 107.639-45.231 177.489-153.443 177.489-269.669zM952.716 324.961c0-175.772-104.775-334.94-266.234-404.218-4.579-1.718-9.733-2.863-14.887-2.863-20.040 0-36.643 16.603-36.643 36.643 0 16.603 8.587 25.764 22.33 33.78 8.016 4.579 17.177 7.443 25.764 12.024 16.032 8.587 32.062 18.322 46.949 29.2 93.898 69.279 149.435 178.634 149.435 295.434s-55.537 226.156-149.435 295.434c-14.887 10.879-30.917 20.611-46.949 29.2-8.587 4.579-17.748 7.443-25.764 12.024-13.74 8.016-22.33 17.177-22.33 33.78 0 20.040 16.603 36.643 36.643 36.643 5.153 0 10.306-1.145 14.887-2.863 161.459-69.279 266.234-228.446 266.234-404.218z" />
<glyph unicode="&#xf029;" glyph-name="qrcode" d="M0 764.676h439.715v-403.073h-73.286v329.787h-293.143v-293.143h366.429v-73.286h-439.715v439.715zM0-114.755v366.429h366.429v-366.429h-329.787v73.286h256.5v219.858h-219.858v-293.143h-73.286zM513.001 398.246v366.429h366.429v-366.429h-329.787v73.286h256.5v219.858h-219.858v-293.143h-73.286zM146.572 618.104h146.572v-146.572h-146.572v146.572zM659.573 618.104h73.286v-73.286h-73.286v73.286zM146.572 105.102h73.286v-73.286h-73.286v73.286zM439.715 251.674h73.286v-73.286h-73.286v73.286zM659.573 178.388h73.286v-73.286h-73.286v73.286zM659.573 31.817h73.286v-73.286h-73.286v73.286zM586.288 324.961h219.858v-146.572h-73.286v73.286h-146.572v73.286zM879.431 105.102v-219.858h-146.572v73.286h73.286v146.572h73.286zM586.288 178.388v-146.572h-146.572v73.286h73.286v73.286h73.286zM439.715-41.469h219.858v-73.286h-219.858v73.286z" />
<glyph unicode="&#xf02a;" glyph-name="barcode" horiz-adv-x="1245" d="M0 762.386h73.286v-877.142h-73.286v877.142zM1172.575 764.676h73.286v-879.431h-73.286v879.431zM146.572 764.676h73.286v-732.86h-73.286v732.86zM293.143 764.676h146.572v-732.86h-146.572v732.86zM732.86 764.676h146.572v-732.86h-146.572v732.86zM1026.003 764.676h73.286v-732.86h-73.286v732.86zM586.288 764.676h73.286v-732.86h-73.286v732.86zM146.572-41.469h73.286v-73.286h-73.286v73.286zM293.143-41.469h73.286v-73.286h-73.286v73.286zM439.715-41.469h73.286v-73.286h-73.286v73.286zM586.288-41.469h73.286v-73.286h-73.286v73.286zM732.86-41.469h73.286v-73.286h-73.286v73.286zM879.431-41.469h73.286v-73.286h-73.286v73.286zM1026.003-41.469h73.286v-73.286h-73.286v73.286z" />
<glyph unicode="&#xf02b;" glyph-name="tag" horiz-adv-x="868" d="M256.5 581.461c0 40.651-32.635 73.286-73.286 73.286s-73.286-32.635-73.286-73.286 32.635-73.286 73.286-73.286 73.286 32.635 73.286 73.286zM867.407 251.674c0-19.467-8.016-38.36-21.185-51.529l-281.12-281.693c-13.74-13.169-32.635-21.185-52.102-21.185s-38.36 8.016-51.529 21.185l-409.37 409.943c-29.2 28.627-52.102 84.164-52.102 124.815v238.179c0 40.078 33.207 73.286 73.286 73.286h238.179c40.651 0 96.188-22.901 125.387-52.102l409.37-408.798c13.169-13.74 21.185-32.635 21.185-52.102z" />
<glyph unicode="&#xf02c;" glyph-name="tags" horiz-adv-x="1087" d="M256.5 581.461c0 40.651-32.635 73.286-73.286 73.286s-73.286-32.635-73.286-73.286 32.635-73.286 73.286-73.286 73.286 32.635 73.286 73.286zM867.407 251.674c0-19.467-8.016-38.36-21.185-51.529l-281.12-281.693c-13.74-13.169-32.635-21.185-52.102-21.185s-38.36 8.016-51.529 21.185l-409.37 409.943c-29.2 28.627-52.102 84.164-52.102 124.815v238.179c0 40.078 33.207 73.286 73.286 73.286h238.179c40.651 0 96.188-22.901 125.387-52.102l409.37-408.798c13.169-13.74 21.185-32.635 21.185-52.102zM1087.266 251.674c0-19.467-8.016-38.36-21.185-51.529l-281.12-281.693c-13.74-13.169-32.635-21.185-52.102-21.185-29.772 0-44.659 13.74-64.126 33.78l269.097 269.097c13.169 13.169 21.185 32.062 21.185 51.529s-8.016 38.36-21.185 52.102l-409.37 408.798c-29.2 29.2-84.737 52.102-125.387 52.102h128.25c40.651 0 96.188-22.901 125.387-52.102l409.37-408.798c13.169-13.74 21.185-32.635 21.185-52.102z" />
<glyph unicode="&#xf02d;" glyph-name="book" horiz-adv-x="953" d="M938.403 564.284c14.314-20.611 18.322-47.521 10.306-73.858l-157.451-518.727c-14.314-48.666-64.697-86.454-113.936-86.454h-528.461c-58.4 0-120.807 46.376-141.992 105.92-9.161 25.764-9.161 50.957-1.145 72.713 1.145 11.451 3.435 22.901 4.008 36.643 0.573 9.161-4.579 16.603-3.435 23.475 2.29 13.74 14.314 23.475 23.475 38.933 17.177 28.627 36.643 75.003 42.941 104.775 2.863 10.879-2.863 23.475 0 33.207 2.863 10.879 13.74 18.893 19.467 29.2 15.459 26.338 35.499 77.293 38.36 104.204 1.145 12.024-4.579 25.193-1.145 34.354 4.008 13.169 16.603 18.893 25.193 30.346 13.74 18.893 36.643 73.286 40.078 103.631 1.145 9.733-4.579 19.467-2.863 29.772 2.29 10.879 16.032 22.33 25.193 35.499 24.046 35.499 28.627 113.936 101.341 93.325l-0.573-1.718c9.733 2.29 19.467 5.153 29.2 5.153h435.707c26.909 0 50.957-12.024 65.271-32.062 14.887-20.611 18.322-47.521 10.306-74.432l-156.877-518.727c-26.909-88.172-41.796-107.639-114.51-107.639h-497.542c-7.443 0-16.603-1.718-21.756-8.587-4.579-6.871-5.153-12.024-0.573-24.619 11.451-33.207 50.957-40.078 82.447-40.078h528.461c21.185 0 45.804 12.024 52.102 32.635l171.765 565.103c3.435 10.879 3.435 22.33 2.863 32.635 13.169-5.153 25.193-13.169 33.78-24.619zM329.213 563.139c-3.435-10.306 2.29-18.322 12.595-18.322h348.109c9.733 0 20.611 8.016 24.046 18.322l12.024 36.643c3.435 10.306-2.29 18.322-12.595 18.322h-348.109c-9.733 0-20.611-8.016-24.046-18.322zM281.693 416.568c-3.435-10.306 2.29-18.322 12.595-18.322h348.109c9.733 0 20.611 8.016 24.046 18.322l12.024 36.643c3.435 10.306-2.29 18.322-12.595 18.322h-348.109c-9.733 0-20.611-8.016-24.046-18.322z" />
<glyph unicode="&#xf02e;" glyph-name="bookmark" horiz-adv-x="733" d="M666.444 764.676c8.587 0 17.177-1.718 25.193-5.153 25.193-9.733 41.223-33.207 41.223-58.973v-738.012c0-25.764-16.032-49.239-41.223-58.973-8.016-3.435-16.603-4.579-25.193-4.579-17.748 0-34.354 6.298-47.521 18.322l-252.493 242.76-252.493-242.76c-13.169-12.024-29.772-18.893-47.521-18.893-8.587 0-17.177 1.718-25.193 5.153-25.193 9.733-41.223 33.207-41.223 58.973v738.012c0 25.764 16.032 49.239 41.223 58.973 8.016 3.435 16.603 5.153 25.193 5.153h600.028z" />
<glyph unicode="&#xf02f;" glyph-name="print" horiz-adv-x="953" d="M219.858-41.469h513.001v146.572h-513.001v-146.572zM219.858 324.961h513.001v219.858h-91.607c-30.346 0-54.965 24.619-54.965 54.965v91.607h-366.429v-366.429zM879.431 288.318c0 20.040-16.603 36.643-36.643 36.643s-36.643-16.603-36.643-36.643 16.603-36.643 36.643-36.643 36.643 16.603 36.643 36.643zM952.716 288.318v-238.179c0-9.733-8.587-18.322-18.322-18.322h-128.25v-91.607c0-30.346-24.619-54.965-54.965-54.965h-549.644c-30.346 0-54.965 24.619-54.965 54.965v91.607h-128.25c-9.733 0-18.322 8.587-18.322 18.322v238.179c0 60.118 49.812 109.928 109.928 109.928h36.643v311.465c0 30.346 24.619 54.965 54.965 54.965h384.751c30.346 0 72.14-17.177 93.898-38.933l87.027-87.027c21.756-21.756 38.933-63.553 38.933-93.898v-146.572h36.643c60.118 0 109.928-49.812 109.928-109.928z" />
<glyph unicode="&#xf030;" glyph-name="camera" horiz-adv-x="1099" d="M549.644 453.211c91.035 0 164.893-73.858 164.893-164.893s-73.858-164.893-164.893-164.893-164.893 73.858-164.893 164.893 73.858 164.893 164.893 164.893zM952.716 691.389c80.729 0 146.572-65.842 146.572-146.572v-513.001c0-80.729-65.842-146.572-146.572-146.572h-806.144c-80.729 0-146.572 65.842-146.572 146.572v513.001c0 80.729 65.842 146.572 146.572 146.572h128.25l29.2 77.866c14.314 37.788 58.973 68.705 99.051 68.705h293.143c40.078 0 84.737-30.917 99.051-68.705l29.2-77.866h128.25zM549.644 31.817c141.419 0 256.5 115.081 256.5 256.5s-115.081 256.5-256.5 256.5-256.5-115.081-256.5-256.5 115.081-256.5 256.5-256.5z" />
<glyph unicode="&#xf031;" glyph-name="font" horiz-adv-x="953" d="M415.096 517.908l-97.333-257.646c56.681-0.573 113.365-2.29 170.046-2.29 10.879 0 21.756 0.573 32.635 1.145-29.772 87.027-64.697 175.772-105.349 258.791zM0-114.755l1.145 45.231c53.82 16.603 112.219 5.153 136.266 66.987l135.694 352.688 160.313 414.523h73.286c2.29-4.008 4.579-8.016 6.298-12.024l117.373-274.822c42.941-101.341 82.447-203.827 125.96-304.594 25.764-59.545 45.804-120.807 74.432-179.207 4.008-9.161 12.024-26.338 20.040-32.635 18.893-14.887 71.569-18.322 98.478-28.627 1.718-10.879 3.435-21.756 3.435-32.635 0-5.153-0.573-9.733-0.573-14.887-72.713 0-145.427 9.161-218.14 9.161-75.003 0-150.006-6.298-225.011-8.587 0 14.887 0.573 29.772 2.29 44.659l75.003 16.032c15.459 3.435 45.804 7.443 45.804 28.627 0 20.611-73.858 190.658-83.019 214.132l-257.646 1.145c-14.887-33.207-72.713-183.215-72.713-204.971 0-44.086 84.164-45.804 116.799-50.384 0.573-10.879 0.573-21.756 0.573-33.207 0-5.153-0.573-10.306-1.145-15.459-66.416 0-133.403 11.451-199.819 11.451-8.016 0-19.467-3.435-27.483-4.579-36.070-6.298-71.569-8.016-107.639-8.016z" />
<glyph unicode="&#xf032;" glyph-name="bold" horiz-adv-x="807" d="M317.763-32.881c25.193-10.879 52.673-18.322 80.156-18.322 130.54 0 215.277 52.102 215.277 191.803 0 35.499-4.579 72.713-23.475 103.059-53.247 85.882-129.968 90.462-222.148 90.462-17.177 0-41.796 0-57.826-5.726 0-60.689-0.573-121.38-0.573-181.497 0-39.507-5.153-146.572 8.587-179.78zM309.747 394.238c20.611-3.435 41.796-4.008 62.408-4.008 117.944 0 202.108 33.207 202.108 165.466 0 111.647-99.051 150.006-194.666 150.006-25.193 0-49.812-3.435-74.432-7.443 0-57.826 4.579-115.655 4.579-173.481 0-30.346-0.573-60.689-0.573-91.035 0-13.169 0-26.338 0.573-39.507zM0-114.755l1.145 53.82c36.643 9.161 73.858 9.733 109.357 24.619 20.040 33.78 17.177 93.325 17.177 131.686 0 12.595 1.145 559.95-12.595 586.86-8.587 16.603-92.752 20.611-111.647 22.901l-2.29 47.521c136.266 2.29 272.532 12.024 408.226 12.024 25.764 0 52.102-0.573 77.866-0.573 129.395 0 271.96-61.834 271.96-210.698 0-102.486-77.866-140.846-158.596-177.489 108.783-24.619 205.545-98.478 205.545-218.713 0-196.955-179.207-262.226-346.964-262.226-50.384 0-100.767 3.435-151.152 3.435-102.486 0-206.116-9.161-308.031-13.169z" />
<glyph unicode="&#xf033;" glyph-name="italic" horiz-adv-x="587" d="M0-113.61l9.733 48.666c36.643 11.451 76.148 16.032 110.502 33.78 13.169 16.603 19.467 37.788 23.475 57.826 7.443 38.933 132.258 600.602 130.54 646.405v14.314c-31.491 17.177-69.85 12.595-104.204 18.322l10.879 58.973c73.858-3.435 148.861-9.161 223.293-9.161 60.689 0 121.38 5.726 182.070 9.161-2.29-17.177-6.298-34.354-10.879-50.957-39.507-13.74-81.301-20.040-120.234-35.499-12.595-30.917-15.459-64.697-21.185-97.333-27.483-148.29-64.126-296.579-94.47-443.723-5.726-27.483-33.78-141.419-31.491-165.466l0.573-10.306c34.925-8.016 70.424-12.024 105.92-17.748-1.145-18.893-4.579-37.788-9.161-56.681-12.595 0-24.619-1.718-37.215-1.718-32.635 0-66.416 10.879-99.051 11.451-39.507 0.573-79.011 1.145-117.944 1.145-50.957 0-100.767-8.587-151.152-11.451z" />
<glyph unicode="&#xf034;" glyph-name="text-height" d="M998.52 31.817c25.193 0 33.207-16.032 17.748-36.070l-72.14-92.752c-15.459-20.040-40.651-20.040-56.11 0l-72.14 92.752c-15.459 20.040-7.443 36.070 17.748 36.070h45.804v586.288h-45.804c-25.193 0-33.207 16.032-17.748 36.070l72.14 92.752c15.459 20.040 40.651 20.040 56.11 0l72.14-92.752c15.459-20.040 7.443-36.070-17.748-36.070h-45.804v-586.288h45.804zM46.376 764.103l30.917-15.459c4.008-1.718 108.783-2.863 120.807-2.863 50.384 0 100.767 2.29 151.152 2.29 41.223 0 81.874-0.573 123.097-0.573h167.757c22.901 0 36.070-5.153 51.529 16.603l24.046 0.573c5.153 0 10.879-0.573 16.032-0.573 1.145-64.126 1.145-128.25 1.145-192.376 0-20.040 0.573-42.368-2.863-62.408-12.595-4.579-25.764-8.587-38.933-10.306-13.169 22.901-22.33 48.094-30.917 73.286-4.008 11.451-17.748 88.745-18.893 89.89-12.024 14.887-25.193 12.024-42.941 12.024-52.102 0-106.494 2.29-158.022-4.008-2.863-25.193-5.153-52.102-4.579-77.866 0.573-160.885 2.29-321.771 2.29-482.656 0-44.086-6.871-90.462 5.726-132.831 43.513-22.33 95.043-25.764 139.701-45.804 1.145-9.161 2.863-18.893 2.863-28.627 0-5.153-0.573-10.879-1.718-16.603l-19.467-0.573c-81.301-2.29-161.459 10.306-243.332 10.306-57.826 0-115.655-10.306-173.481-10.306-0.573 9.733-1.718 20.040-1.718 29.772v5.153c21.756 34.925 100.196 35.499 136.266 56.681 12.595 28.054 10.879 183.215 10.879 219.285 0 115.655-3.435 231.309-3.435 346.964v66.987c0 10.306 2.29 51.529-4.579 59.545-8.016 8.587-83.019 6.871-92.752 6.871-21.185 0-82.447-9.733-99.051-21.756-27.483-18.893-27.483-133.403-61.834-135.694-10.306 6.298-24.619 15.459-32.062 25.193v219.285z" />
<glyph unicode="&#xf035;" glyph-name="text-width" d="M46.376 764.103l30.917-15.459c4.008-1.718 108.783-2.863 120.807-2.863 50.384 0 100.767 2.29 151.152 2.29 151.725 0 305.167 3.435 456.892-1.718 12.595-0.573 24.619 7.443 32.062 17.748l24.046 0.573c5.153 0 10.879-0.573 16.032-0.573 1.145-64.126 1.145-128.25 1.145-192.376 0-20.611 0.573-42.368-2.863-62.408-12.595-4.579-25.764-8.587-38.933-10.306-13.169 22.901-22.33 48.094-30.917 73.286-4.008 11.451-18.322 88.745-18.893 89.89-4.008 5.153-9.161 8.587-15.459 10.879-4.579 1.718-32.062 1.145-37.788 1.145-70.424 0-151.725 4.008-221.003-4.008-2.863-25.193-5.153-52.102-4.579-77.866l0.573-87.027v29.772c0.573-93.325 1.718-186.078 1.718-278.83 0-44.086-6.871-90.462 5.726-132.831 43.513-22.33 95.043-25.764 139.701-45.804 1.145-9.161 2.863-18.893 2.863-28.627 0-5.153-0.573-10.879-1.718-16.603l-19.467-0.573c-81.301-2.29-161.459 10.306-243.332 10.306-57.826 0-115.655-10.306-173.481-10.306-0.573 9.733-1.718 20.040-1.718 29.772v5.153c21.756 34.925 100.196 35.499 136.266 56.681 14.314 32.062 10.306 302.877 10.306 353.261 0 8.016-2.863 16.603-2.863 25.193 0 23.475 4.008 158.022-4.579 167.757-8.016 8.587-83.019 6.871-92.752 6.871-24.046 0-158.596-12.595-172.336-21.756-26.909-17.748-27.483-132.831-61.834-135.694-10.306 6.298-24.619 15.459-32.062 25.193v219.285zM750.035 30.099c20.040 0 96.188-68.133 111.647-80.156 8.587-6.871 14.887-16.603 14.887-28.054s-6.298-21.185-14.887-28.054c-15.459-12.024-91.607-80.156-111.647-80.156-26.338 0-17.177 61.263-17.177 71.569h-586.288c0-10.306 9.161-71.569-17.177-71.569-20.040 0-96.188 68.133-111.647 80.156-8.587 6.871-14.887 16.603-14.887 28.054s6.298 21.185 14.887 28.054c15.459 12.024 91.607 80.156 111.647 80.156 26.338 0 17.177-61.263 17.177-71.569h586.288c0 10.306-9.161 71.569 17.177 71.569z" />
<glyph unicode="&#xf036;" glyph-name="align-left" d="M1026.003 68.46v-73.286c0-20.040-16.603-36.643-36.643-36.643h-952.716c-20.040 0-36.643 16.603-36.643 36.643v73.286c0 20.040 16.603 36.643 36.643 36.643h952.716c20.040 0 36.643-16.603 36.643-36.643zM806.144 288.318v-73.286c0-20.040-16.603-36.643-36.643-36.643h-732.86c-20.040 0-36.643 16.603-36.643 36.643v73.286c0 20.040 16.603 36.643 36.643 36.643h732.86c20.040 0 36.643-16.603 36.643-36.643zM952.716 508.176v-73.286c0-20.040-16.603-36.643-36.643-36.643h-879.431c-20.040 0-36.643 16.603-36.643 36.643v73.286c0 20.040 16.603 36.643 36.643 36.643h879.431c20.040 0 36.643-16.603 36.643-36.643zM732.86 728.033v-73.286c0-20.040-16.603-36.643-36.643-36.643h-659.573c-20.040 0-36.643 16.603-36.643 36.643v73.286c0 20.040 16.603 36.643 36.643 36.643h659.573c20.040 0 36.643-16.603 36.643-36.643z" />
<glyph unicode="&#xf037;" glyph-name="align-center" d="M1026.003 68.46v-73.286c0-20.040-16.603-36.643-36.643-36.643h-952.716c-20.040 0-36.643 16.603-36.643 36.643v73.286c0 20.040 16.603 36.643 36.643 36.643h952.716c20.040 0 36.643-16.603 36.643-36.643zM806.144 288.318v-73.286c0-20.040-16.603-36.643-36.643-36.643h-513.001c-20.040 0-36.643 16.603-36.643 36.643v73.286c0 20.040 16.603 36.643 36.643 36.643h513.001c20.040 0 36.643-16.603 36.643-36.643zM952.716 508.176v-73.286c0-20.040-16.603-36.643-36.643-36.643h-806.144c-20.040 0-36.643 16.603-36.643 36.643v73.286c0 20.040 16.603 36.643 36.643 36.643h806.144c20.040 0 36.643-16.603 36.643-36.643zM732.86 728.033v-73.286c0-20.040-16.603-36.643-36.643-36.643h-366.429c-20.040 0-36.643 16.603-36.643 36.643v73.286c0 20.040 16.603 36.643 36.643 36.643h366.429c20.040 0 36.643-16.603 36.643-36.643z" />
<glyph unicode="&#xf038;" glyph-name="align-right" d="M1026.003 68.46v-73.286c0-20.040-16.603-36.643-36.643-36.643h-952.716c-20.040 0-36.643 16.603-36.643 36.643v73.286c0 20.040 16.603 36.643 36.643 36.643h952.716c20.040 0 36.643-16.603 36.643-36.643zM1026.003 288.318v-73.286c0-20.040-16.603-36.643-36.643-36.643h-732.86c-20.040 0-36.643 16.603-36.643 36.643v73.286c0 20.040 16.603 36.643 36.643 36.643h732.86c20.040 0 36.643-16.603 36.643-36.643zM1026.003 508.176v-73.286c0-20.040-16.603-36.643-36.643-36.643h-879.431c-20.040 0-36.643 16.603-36.643 36.643v73.286c0 20.040 16.603 36.643 36.643 36.643h879.431c20.040 0 36.643-16.603 36.643-36.643zM1026.003 728.033v-73.286c0-20.040-16.603-36.643-36.643-36.643h-659.573c-20.040 0-36.643 16.603-36.643 36.643v73.286c0 20.040 16.603 36.643 36.643 36.643h659.573c20.040 0 36.643-16.603 36.643-36.643z" />
<glyph unicode="&#xf039;" glyph-name="align-justify" d="M1026.003 68.46v-73.286c0-20.040-16.603-36.643-36.643-36.643h-952.716c-20.040 0-36.643 16.603-36.643 36.643v73.286c0 20.040 16.603 36.643 36.643 36.643h952.716c20.040 0 36.643-16.603 36.643-36.643zM1026.003 288.318v-73.286c0-20.040-16.603-36.643-36.643-36.643h-952.716c-20.040 0-36.643 16.603-36.643 36.643v73.286c0 20.040 16.603 36.643 36.643 36.643h952.716c20.040 0 36.643-16.603 36.643-36.643zM1026.003 508.176v-73.286c0-20.040-16.603-36.643-36.643-36.643h-952.716c-20.040 0-36.643 16.603-36.643 36.643v73.286c0 20.040 16.603 36.643 36.643 36.643h952.716c20.040 0 36.643-16.603 36.643-36.643zM1026.003 728.033v-73.286c0-20.040-16.603-36.643-36.643-36.643h-952.716c-20.040 0-36.643 16.603-36.643 36.643v73.286c0 20.040 16.603 36.643 36.643 36.643h952.716c20.040 0 36.643-16.603 36.643-36.643z" />
<glyph unicode="&#xf03a;" glyph-name="list" d="M146.572 86.781v-109.928c0-9.733-8.587-18.322-18.322-18.322h-109.928c-9.733 0-18.322 8.587-18.322 18.322v109.928c0 9.733 8.587 18.322 18.322 18.322h109.928c9.733 0 18.322-8.587 18.322-18.322zM146.572 306.639v-109.928c0-9.733-8.587-18.322-18.322-18.322h-109.928c-9.733 0-18.322 8.587-18.322 18.322v109.928c0 9.733 8.587 18.322 18.322 18.322h109.928c9.733 0 18.322-8.587 18.322-18.322zM146.572 526.496v-109.928c0-9.733-8.587-18.322-18.322-18.322h-109.928c-9.733 0-18.322 8.587-18.322 18.322v109.928c0 9.733 8.587 18.322 18.322 18.322h109.928c9.733 0 18.322-8.587 18.322-18.322zM1026.003 86.781v-109.928c0-9.733-8.587-18.322-18.322-18.322h-769.502c-9.733 0-18.322 8.587-18.322 18.322v109.928c0 9.733 8.587 18.322 18.322 18.322h769.502c9.733 0 18.322-8.587 18.322-18.322zM146.572 746.354v-109.928c0-9.733-8.587-18.322-18.322-18.322h-109.928c-9.733 0-18.322 8.587-18.322 18.322v109.928c0 9.733 8.587 18.322 18.322 18.322h109.928c9.733 0 18.322-8.587 18.322-18.322zM1026.003 306.639v-109.928c0-9.733-8.587-18.322-18.322-18.322h-769.502c-9.733 0-18.322 8.587-18.322 18.322v109.928c0 9.733 8.587 18.322 18.322 18.322h769.502c9.733 0 18.322-8.587 18.322-18.322zM1026.003 526.496v-109.928c0-9.733-8.587-18.322-18.322-18.322h-769.502c-9.733 0-18.322 8.587-18.322 18.322v109.928c0 9.733 8.587 18.322 18.322 18.322h769.502c9.733 0 18.322-8.587 18.322-18.322zM1026.003 746.354v-109.928c0-9.733-8.587-18.322-18.322-18.322h-769.502c-9.733 0-18.322 8.587-18.322 18.322v109.928c0 9.733 8.587 18.322 18.322 18.322h769.502c9.733 0 18.322-8.587 18.322-18.322z" />
<glyph unicode="&#xf03b;" glyph-name="outdent" d="M219.858 526.496v-329.787c0-9.733-8.587-18.322-18.322-18.322-4.579 0-9.733 1.718-13.169 5.153l-164.893 164.893c-3.435 3.435-5.153 8.587-5.153 13.169s1.718 9.733 5.153 13.169l164.893 164.893c3.435 3.435 8.587 5.153 13.169 5.153 9.733 0 18.322-8.587 18.322-18.322zM1026.003 86.781v-109.928c0-9.733-8.587-18.322-18.322-18.322h-989.36c-9.733 0-18.322 8.587-18.322 18.322v109.928c0 9.733 8.587 18.322 18.322 18.322h989.36c9.733 0 18.322-8.587 18.322-18.322zM1026.003 306.639v-109.928c0-9.733-8.587-18.322-18.322-18.322h-622.93c-9.733 0-18.322 8.587-18.322 18.322v109.928c0 9.733 8.587 18.322 18.322 18.322h622.93c9.733 0 18.322-8.587 18.322-18.322zM1026.003 526.496v-109.928c0-9.733-8.587-18.322-18.322-18.322h-622.93c-9.733 0-18.322 8.587-18.322 18.322v109.928c0 9.733 8.587 18.322 18.322 18.322h622.93c9.733 0 18.322-8.587 18.322-18.322zM1026.003 746.354v-109.928c0-9.733-8.587-18.322-18.322-18.322h-989.36c-9.733 0-18.322 8.587-18.322 18.322v109.928c0 9.733 8.587 18.322 18.322 18.322h989.36c9.733 0 18.322-8.587 18.322-18.322z" />
<glyph unicode="&#xf03c;" glyph-name="indent" d="M201.537 361.603c0-4.579-1.718-9.733-5.153-13.169l-164.893-164.893c-3.435-3.435-8.587-5.153-13.169-5.153-9.733 0-18.322 8.587-18.322 18.322v329.787c0 9.733 8.587 18.322 18.322 18.322 4.579 0 9.733-1.718 13.169-5.153l164.893-164.893c3.435-3.435 5.153-8.587 5.153-13.169zM1026.003 86.781v-109.928c0-9.733-8.587-18.322-18.322-18.322h-989.36c-9.733 0-18.322 8.587-18.322 18.322v109.928c0 9.733 8.587 18.322 18.322 18.322h989.36c9.733 0 18.322-8.587 18.322-18.322zM1026.003 306.639v-109.928c0-9.733-8.587-18.322-18.322-18.322h-622.93c-9.733 0-18.322 8.587-18.322 18.322v109.928c0 9.733 8.587 18.322 18.322 18.322h622.93c9.733 0 18.322-8.587 18.322-18.322zM1026.003 526.496v-109.928c0-9.733-8.587-18.322-18.322-18.322h-622.93c-9.733 0-18.322 8.587-18.322 18.322v109.928c0 9.733 8.587 18.322 18.322 18.322h622.93c9.733 0 18.322-8.587 18.322-18.322zM1026.003 746.354v-109.928c0-9.733-8.587-18.322-18.322-18.322h-989.36c-9.733 0-18.322 8.587-18.322 18.322v109.928c0 9.733 8.587 18.322 18.322 18.322h989.36c9.733 0 18.322-8.587 18.322-18.322z" />
<glyph unicode="&#xf03d;" glyph-name="video-camera" d="M1026.003 636.426v-622.93c0-14.887-9.161-28.054-22.33-33.78-4.579-1.718-9.733-2.863-14.314-2.863-9.733 0-18.893 3.435-25.764 10.879l-230.736 230.736v-95.043c0-91.035-73.858-164.893-164.893-164.893h-403.073c-91.035 0-164.893 73.858-164.893 164.893v403.073c0 91.035 73.858 164.893 164.893 164.893h403.073c91.035 0 164.893-73.858 164.893-164.893v-94.47l230.736 230.164c6.871 7.443 16.032 10.879 25.764 10.879 4.579 0 9.733-1.145 14.314-2.863 13.169-5.726 22.33-18.893 22.33-33.78z" />
<glyph unicode="&#xf03e;" glyph-name="picture-o" horiz-adv-x="1099" d="M366.429 508.176c0-60.689-49.239-109.928-109.928-109.928s-109.928 49.239-109.928 109.928 49.239 109.928 109.928 109.928 109.928-49.239 109.928-109.928zM952.716 288.318v-256.5h-806.144v109.928l183.215 183.215 91.607-91.607 293.143 293.143zM1007.681 691.389h-916.075c-9.733 0-18.322-8.587-18.322-18.322v-696.216c0-9.733 8.587-18.322 18.322-18.322h916.075c9.733 0 18.322 8.587 18.322 18.322v696.216c0 9.733-8.587 18.322-18.322 18.322zM1099.289 673.069v-696.216c0-50.384-41.223-91.607-91.607-91.607h-916.075c-50.384 0-91.607 41.223-91.607 91.607v696.216c0 50.384 41.223 91.607 91.607 91.607h916.075c50.384 0 91.607-41.223 91.607-91.607z" />
<glyph unicode="&#xf040;" glyph-name="pencil" horiz-adv-x="868" d="M207.835-41.469l52.102 52.102-134.548 134.548-52.102-52.102v-61.263h73.286v-73.286h61.263zM507.276 489.854c0 7.443-5.153 12.595-12.595 12.595-3.435 0-6.871-1.145-9.733-4.008l-310.32-310.32c-2.863-2.863-4.008-6.298-4.008-9.733 0-7.443 5.153-12.595 12.595-12.595 3.435 0 6.871 1.145 9.733 4.008l310.32 310.32c2.863 2.863 4.008 6.298 4.008 9.733zM476.359 599.783l238.179-238.179-476.359-476.359h-238.179v238.179zM867.407 544.818c0-19.467-8.016-38.36-21.185-51.529l-95.043-95.043-238.179 238.179 95.043 94.47c13.169 13.74 32.062 21.756 51.529 21.756s38.36-8.016 52.102-21.756l134.548-133.976c13.169-13.74 21.185-32.635 21.185-52.102z" />
<glyph unicode="&#xf041;" glyph-name="map-marker" horiz-adv-x="587" d="M439.715 471.533c0 80.729-65.842 146.572-146.572 146.572s-146.572-65.842-146.572-146.572 65.842-146.572 146.572-146.572 146.572 65.842 146.572 146.572zM586.288 471.533c0-34.925-4.008-70.995-18.893-102.486l-208.407-443.151c-12.024-25.193-38.36-40.651-65.842-40.651s-53.82 15.459-65.271 40.651l-208.979 443.151c-14.887 31.491-18.893 67.561-18.893 102.486 0 162.030 131.113 293.143 293.143 293.143s293.143-131.113 293.143-293.143z" />
<glyph unicode="&#xf042;" glyph-name="adjust" d="M439.715 13.495v622.93c-171.765 0-311.465-139.701-311.465-311.465s139.701-311.465 311.465-311.465zM879.431 324.961c0-242.76-196.955-439.715-439.715-439.715s-439.715 196.955-439.715 439.715 196.955 439.715 439.715 439.715 439.715-196.955 439.715-439.715z" />
<glyph unicode="&#xf043;" glyph-name="tint" horiz-adv-x="587" d="M293.143 178.388c0 14.314-4.579 28.054-11.451 39.507-7.443 11.451-37.788 50.384-49.812 88.745-1.718 6.298-7.443 9.161-12.024 9.161s-10.306-2.863-12.024-9.161c-12.024-38.36-42.368-77.293-49.812-88.745-6.871-11.451-11.451-25.193-11.451-39.507 0-40.651 32.635-73.286 73.286-73.286s73.286 32.635 73.286 73.286zM586.288 251.674c0-162.030-131.113-293.143-293.143-293.143s-293.143 131.113-293.143 293.143c0 57.826 17.748 111.647 46.376 157.451 29.2 45.804 151.725 200.963 198.1 355.551 7.443 24.619 30.346 36.643 48.666 36.643s41.796-12.024 48.666-36.643c46.376-154.588 168.901-309.747 198.1-355.551s46.376-99.623 46.376-157.451z" />
<glyph unicode="&#xf044;" glyph-name="pencil-square-o" horiz-adv-x="1021" d="M508.422 160.068l66.416 66.416-87.027 87.027-66.416-66.416v-32.062h54.965v-54.965h32.062zM760.342 572.3c-5.153 5.153-13.74 4.579-18.893-0.573l-200.392-200.392c-5.153-5.153-5.726-13.74-0.573-18.893s13.74-4.579 18.893 0.573l200.392 200.392c5.153 5.153 5.726 13.74 0.573 18.893zM806.144 232.208v-108.783c0-91.035-73.858-164.893-164.893-164.893h-476.359c-91.035 0-164.893 73.858-164.893 164.893v476.359c0 91.035 73.858 164.893 164.893 164.893h476.359c22.901 0 45.804-4.579 66.987-14.314 5.153-2.29 9.161-7.443 10.306-13.169 1.145-6.298-0.573-12.024-5.153-16.603l-28.054-28.054c-5.153-5.153-12.024-6.871-18.322-4.579-8.587 2.29-17.177 3.435-25.764 3.435h-476.359c-50.384 0-91.607-41.223-91.607-91.607v-476.359c0-50.384 41.223-91.607 91.607-91.607h476.359c50.384 0 91.607 41.223 91.607 91.607v72.14c0 4.579 1.718 9.161 5.153 12.595l36.643 36.643c5.726 5.726 13.169 6.871 20.040 4.008s11.451-9.161 11.451-16.603zM751.181 654.748l164.893-164.893-384.751-384.751h-164.893v164.893zM1005.392 579.171l-52.673-52.673-164.893 164.893 52.673 52.673c21.185 21.185 56.681 21.185 77.866 0l87.027-87.027c21.185-21.185 21.185-56.681 0-77.866z" />
<glyph unicode="&#xf045;" glyph-name="share-square-o" horiz-adv-x="953" d="M806.144 271.714v-148.29c0-91.035-73.858-164.893-164.893-164.893h-476.359c-91.035 0-164.893 73.858-164.893 164.893v476.359c0 91.035 73.858 164.893 164.893 164.893h145.999c9.733 0 18.322-8.016 18.322-18.322 0-9.161-6.298-16.603-14.887-18.322-28.627-9.733-54.392-21.185-76.148-34.354-2.863-1.145-5.726-2.29-9.161-2.29h-64.126c-50.384 0-91.607-41.223-91.607-91.607v-476.359c0-50.384 41.223-91.607 91.607-91.607h476.359c50.384 0 91.607 41.223 91.607 91.607v122.526c0 6.871 4.008 13.169 10.306 16.603 11.451 5.153 21.756 12.595 30.917 21.185 5.153 5.153 13.169 7.443 20.040 4.579s12.024-9.161 12.024-16.603zM941.839 555.697l-219.858-219.858c-6.871-7.443-16.032-10.879-25.764-10.879-4.579 0-9.733 1.145-14.314 2.863-13.169 5.726-22.33 18.893-22.33 33.78v109.928h-91.607c-125.96 0-206.116-24.046-250.776-75.003-46.376-53.247-60.118-139.129-42.368-270.814 1.145-8.016-4.008-16.032-11.451-19.467-2.29-0.573-4.579-1.145-6.871-1.145-5.726 0-11.451 2.863-14.887 7.443-4.008 5.726-95.043 134.548-95.043 249.057 0 153.443 48.094 329.787 421.394 329.787h91.607v109.928c0 14.887 9.161 28.054 22.33 33.78 4.579 1.718 9.733 2.863 14.314 2.863 9.733 0 18.893-4.008 25.764-10.879l219.858-219.858c14.314-14.314 14.314-37.215 0-51.529z" />
<glyph unicode="&#xf046;" glyph-name="check-square-o" horiz-adv-x="952" d="M806.144 305.494v-182.070c0-91.035-73.858-164.893-164.893-164.893h-476.359c-91.035 0-164.893 73.858-164.893 164.893v476.359c0 91.035 73.858 164.893 164.893 164.893h476.359c22.901 0 45.804-4.579 66.987-14.314 5.153-2.29 9.161-7.443 10.306-13.169 1.145-6.298-0.573-12.024-5.153-16.603l-28.054-28.054c-3.435-3.435-8.587-5.726-13.169-5.726-1.718 0-3.435 0.573-5.153 1.145-8.587 2.29-17.177 3.435-25.764 3.435h-476.359c-50.384 0-91.607-41.223-91.607-91.607v-476.359c0-50.384 41.223-91.607 91.607-91.607h476.359c50.384 0 91.607 41.223 91.607 91.607v145.427c0 4.579 1.718 9.161 5.153 12.595l36.643 36.643c4.008 4.008 8.587 5.726 13.169 5.726 2.29 0 4.579-0.573 6.871-1.718 6.871-2.863 11.451-9.161 11.451-16.603zM938.403 585.469l-466.053-466.053c-18.322-18.322-46.949-18.322-65.271 0l-246.194 246.194c-18.322 18.322-18.322 46.949 0 65.271l62.98 62.98c18.322 18.322 46.949 18.322 65.271 0l150.58-150.58 370.437 370.437c18.322 18.322 46.949 18.322 65.271 0l62.98-62.98c18.322-18.322 18.322-46.949 0-65.271z" />
<glyph unicode="&#xf047;" glyph-name="arrows" d="M1026.003 324.961c0-9.733-4.008-18.893-10.879-25.764l-146.572-146.572c-6.871-6.871-16.032-10.879-25.764-10.879-20.040 0-36.643 16.603-36.643 36.643v73.286h-219.858v-219.858h73.286c20.040 0 36.643-16.603 36.643-36.643 0-9.733-4.008-18.893-10.879-25.764l-146.572-146.572c-6.871-6.871-16.032-10.879-25.764-10.879s-18.893 4.008-25.764 10.879l-146.572 146.572c-6.871 6.871-10.879 16.032-10.879 25.764 0 20.040 16.603 36.643 36.643 36.643h73.286v219.858h-219.858v-73.286c0-20.040-16.603-36.643-36.643-36.643-9.733 0-18.893 4.008-25.764 10.879l-146.572 146.572c-6.871 6.871-10.879 16.032-10.879 25.764s4.008 18.893 10.879 25.764l146.572 146.572c6.871 6.871 16.032 10.879 25.764 10.879 20.040 0 36.643-16.603 36.643-36.643v-73.286h219.858v219.858h-73.286c-20.040 0-36.643 16.603-36.643 36.643 0 9.733 4.008 18.893 10.879 25.764l146.572 146.572c6.871 6.871 16.032 10.879 25.764 10.879s18.893-4.008 25.764-10.879l146.572-146.572c6.871-6.871 10.879-16.032 10.879-25.764 0-20.040-16.603-36.643-36.643-36.643h-73.286v-219.858h219.858v73.286c0 20.040 16.603 36.643 36.643 36.643 9.733 0 18.893-4.008 25.764-10.879l146.572-146.572c6.871-6.871 10.879-16.032 10.879-25.764z" />
<glyph unicode="&#xf048;" glyph-name="step-backward" horiz-adv-x="587" d="M560.523 757.234c14.314 14.314 25.764 9.161 25.764-10.879v-842.788c0-20.040-11.451-25.193-25.764-10.879l-406.508 406.508c-3.435 3.435-5.726 6.871-7.443 10.879v-388.187c0-20.040-16.603-36.643-36.643-36.643h-73.286c-20.040 0-36.643 16.603-36.643 36.643v806.144c0 20.040 16.603 36.643 36.643 36.643h73.286c20.040 0 36.643-16.603 36.643-36.643v-388.187c1.718 4.008 4.008 7.443 7.443 10.879z" />
<glyph unicode="&#xf049;" glyph-name="fast-backward" d="M1000.239 757.234c14.314 14.314 25.764 9.161 25.764-10.879v-842.788c0-20.040-11.451-25.193-25.764-10.879l-406.508 406.508c-3.435 3.435-5.726 6.871-7.443 10.879v-406.508c0-20.040-11.451-25.193-25.764-10.879l-406.508 406.508c-3.435 3.435-5.726 6.871-7.443 10.879v-388.187c0-20.040-16.603-36.643-36.643-36.643h-73.286c-20.040 0-36.643 16.603-36.643 36.643v806.144c0 20.040 16.603 36.643 36.643 36.643h73.286c20.040 0 36.643-16.603 36.643-36.643v-388.187c1.718 4.008 4.008 7.443 7.443 10.879l406.508 406.508c14.314 14.314 25.764 9.161 25.764-10.879v-406.508c1.718 4.008 4.008 7.443 7.443 10.879z" />
<glyph unicode="&#xf04a;" glyph-name="backward" horiz-adv-x="883" d="M857.102 757.234c14.314 14.314 25.764 9.161 25.764-10.879v-842.788c0-20.040-11.451-25.193-25.764-10.879l-406.508 406.508c-3.435 3.435-5.726 6.871-7.443 10.879v-406.508c0-20.040-11.451-25.193-25.764-10.879l-406.508 406.508c-14.314 14.314-14.314 37.215 0 51.529l406.508 406.508c14.314 14.314 25.764 9.161 25.764-10.879v-406.508c1.718 4.008 4.008 7.443 7.443 10.879z" />
<glyph unicode="&#xf04b;" glyph-name="play" horiz-adv-x="806" d="M792.404 307.211l-760.342-422.539c-17.748-9.733-32.062-1.145-32.062 18.893v842.788c0 20.040 14.314 28.627 32.062 18.893l760.342-422.539c17.748-9.733 17.748-25.764 0-35.499z" />
<glyph unicode="&#xf04c;" glyph-name="pause" d="M879.431 728.033v-806.144c0-20.040-16.603-36.643-36.643-36.643h-293.143c-20.040 0-36.643 16.603-36.643 36.643v806.144c0 20.040 16.603 36.643 36.643 36.643h293.143c20.040 0 36.643-16.603 36.643-36.643zM366.429 728.033v-806.144c0-20.040-16.603-36.643-36.643-36.643h-293.143c-20.040 0-36.643 16.603-36.643 36.643v806.144c0 20.040 16.603 36.643 36.643 36.643h293.143c20.040 0 36.643-16.603 36.643-36.643z" />
<glyph unicode="&#xf04d;" glyph-name="stop" d="M879.431 728.033v-806.144c0-20.040-16.603-36.643-36.643-36.643h-806.144c-20.040 0-36.643 16.603-36.643 36.643v806.144c0 20.040 16.603 36.643 36.643 36.643h806.144c20.040 0 36.643-16.603 36.643-36.643z" />
<glyph unicode="&#xf04e;" glyph-name="forward" horiz-adv-x="883" d="M25.764-107.313c-14.314-14.314-25.764-9.161-25.764 10.879v842.788c0 20.040 11.451 25.193 25.764 10.879l406.508-406.508c3.435-3.435 5.726-6.871 7.443-10.879v406.508c0 20.040 11.451 25.193 25.764 10.879l406.508-406.508c14.314-14.314 14.314-37.215 0-51.529l-406.508-406.508c-14.314-14.314-25.764-9.161-25.764 10.879v406.508c-1.718-4.008-4.008-7.443-7.443-10.879z" />
<glyph unicode="&#xf050;" glyph-name="fast-forward" d="M25.764-107.313c-14.314-14.314-25.764-9.161-25.764 10.879v842.788c0 20.040 11.451 25.193 25.764 10.879l406.508-406.508c3.435-3.435 5.726-6.871 7.443-10.879v406.508c0 20.040 11.451 25.193 25.764 10.879l406.508-406.508c3.435-3.435 5.726-6.871 7.443-10.879v388.187c0 20.040 16.603 36.643 36.643 36.643h73.286c20.040 0 36.643-16.603 36.643-36.643v-806.144c0-20.040-16.603-36.643-36.643-36.643h-73.286c-20.040 0-36.643 16.603-36.643 36.643v388.187c-1.718-4.008-4.008-7.443-7.443-10.879l-406.508-406.508c-14.314-14.314-25.764-9.161-25.764 10.879v406.508c-1.718-4.008-4.008-7.443-7.443-10.879z" />
<glyph unicode="&#xf051;" glyph-name="step-forward" horiz-adv-x="587" d="M25.764-107.313c-14.314-14.314-25.764-9.161-25.764 10.879v842.788c0 20.040 11.451 25.193 25.764 10.879l406.508-406.508c3.435-3.435 5.726-6.871 7.443-10.879v388.187c0 20.040 16.603 36.643 36.643 36.643h73.286c20.040 0 36.643-16.603 36.643-36.643v-806.144c0-20.040-16.603-36.643-36.643-36.643h-73.286c-20.040 0-36.643 16.603-36.643 36.643v388.187c-1.718-4.008-4.008-7.443-7.443-10.879z" />
<glyph unicode="&#xf052;" glyph-name="eject" horiz-adv-x="881" d="M8.016 277.438l406.508 406.508c14.314 14.314 37.215 14.314 51.529 0l406.508-406.508c14.314-14.314 9.161-25.764-10.879-25.764h-842.788c-20.040 0-25.193 11.451-10.879 25.764zM843.361-41.469h-806.144c-20.040 0-36.643 16.603-36.643 36.643v146.572c0 20.040 16.603 36.643 36.643 36.643h806.144c20.040 0 36.643-16.603 36.643-36.643v-146.572c0-20.040-16.603-36.643-36.643-36.643z" />
<glyph unicode="&#xf053;" glyph-name="chevron-left" horiz-adv-x="594" d="M582.28 665.625l-304.023-304.023 304.023-304.023c14.314-14.314 14.314-37.215 0-51.529l-95.043-95.043c-14.314-14.314-37.215-14.314-51.529 0l-424.829 424.829c-14.314 14.314-14.314 37.215 0 51.529l424.829 424.829c14.314 14.314 37.215 14.314 51.529 0l95.043-95.043c14.314-14.314 14.314-37.215 0-51.529z" />
<glyph unicode="&#xf054;" glyph-name="chevron-right" horiz-adv-x="594" d="M582.28 335.838l-424.829-424.829c-14.314-14.314-37.215-14.314-51.529 0l-95.043 95.043c-14.314 14.314-14.314 37.215 0 51.529l304.023 304.023-304.023 304.023c-14.314 14.314-14.314 37.215 0 51.529l95.043 95.043c14.314 14.314 37.215 14.314 51.529 0l424.829-424.829c14.314-14.314 14.314-37.215 0-51.529z" />
<glyph unicode="&#xf055;" glyph-name="plus-circle" d="M696.216 288.318v73.286c0 20.040-16.603 36.643-36.643 36.643h-146.572v146.572c0 20.040-16.603 36.643-36.643 36.643h-73.286c-20.040 0-36.643-16.603-36.643-36.643v-146.572h-146.572c-20.040 0-36.643-16.603-36.643-36.643v-73.286c0-20.040 16.603-36.643 36.643-36.643h146.572v-146.572c0-20.040 16.603-36.643 36.643-36.643h73.286c20.040 0 36.643 16.603 36.643 36.643v146.572h146.572c20.040 0 36.643 16.603 36.643 36.643zM879.431 324.961c0-242.76-196.955-439.715-439.715-439.715s-439.715 196.955-439.715 439.715 196.955 439.715 439.715 439.715 439.715-196.955 439.715-439.715z" />
<glyph unicode="&#xf056;" glyph-name="minus-circle" d="M696.216 288.318v73.286c0 20.040-16.603 36.643-36.643 36.643h-439.715c-20.040 0-36.643-16.603-36.643-36.643v-73.286c0-20.040 16.603-36.643 36.643-36.643h439.715c20.040 0 36.643 16.603 36.643 36.643zM879.431 324.961c0-242.76-196.955-439.715-439.715-439.715s-439.715 196.955-439.715 439.715 196.955 439.715 439.715 439.715 439.715-196.955 439.715-439.715z" />
<glyph unicode="&#xf057;" glyph-name="times-circle" d="M657.855 195.565c0 9.733-4.008 18.893-10.879 25.764l-103.631 103.631 103.631 103.631c6.871 6.871 10.879 16.032 10.879 25.764s-4.008 19.467-10.879 26.338l-51.529 51.529c-6.871 6.871-16.603 10.879-26.338 10.879s-18.893-4.008-25.764-10.879l-103.631-103.631-103.631 103.631c-6.871 6.871-16.032 10.879-25.764 10.879s-19.467-4.008-26.338-10.879l-51.529-51.529c-6.871-6.871-10.879-16.603-10.879-26.338s4.008-18.893 10.879-25.764l103.631-103.631-103.631-103.631c-6.871-6.871-10.879-16.032-10.879-25.764s4.008-19.467 10.879-26.338l51.529-51.529c6.871-6.871 16.603-10.879 26.338-10.879s18.893 4.008 25.764 10.879l103.631 103.631 103.631-103.631c6.871-6.871 16.032-10.879 25.764-10.879s19.467 4.008 26.338 10.879l51.529 51.529c6.871 6.871 10.879 16.603 10.879 26.338zM879.431 324.961c0-242.76-196.955-439.715-439.715-439.715s-439.715 196.955-439.715 439.715 196.955 439.715 439.715 439.715 439.715-196.955 439.715-439.715z" />
<glyph unicode="&#xf058;" glyph-name="check-circle" d="M735.149 417.712c0 9.733-3.435 19.467-10.306 26.338l-52.102 51.529c-6.871 6.871-16.032 10.879-25.764 10.879s-18.893-4.008-25.764-10.879l-233.599-233.026-129.395 129.395c-6.871 6.871-16.032 10.879-25.764 10.879s-18.893-4.008-25.764-10.879l-52.102-51.529c-6.871-6.871-10.306-16.603-10.306-26.338s3.435-18.893 10.306-25.764l207.261-207.261c6.871-6.871 16.603-10.879 25.764-10.879 9.733 0 19.467 4.008 26.338 10.879l310.893 310.893c6.871 6.871 10.306 16.032 10.306 25.764zM879.431 324.961c0-242.76-196.955-439.715-439.715-439.715s-439.715 196.955-439.715 439.715 196.955 439.715 439.715 439.715 439.715-196.955 439.715-439.715z" />
<glyph unicode="&#xf059;" glyph-name="question-circle" d="M513.001 50.138v109.928c0 10.306-8.016 18.322-18.322 18.322h-109.928c-10.306 0-18.322-8.016-18.322-18.322v-109.928c0-10.306 8.016-18.322 18.322-18.322h109.928c10.306 0 18.322 8.016 18.322 18.322zM659.573 434.889c0 104.775-109.928 183.215-208.407 183.215-93.325 0-163.175-40.078-212.414-121.952-5.153-8.016-2.863-18.322 4.579-24.046l75.577-57.255c2.863-2.29 6.871-3.435 10.879-3.435 5.153 0 10.879 2.29 14.314 6.871 26.909 34.354 38.36 44.659 49.239 52.673 9.733 6.871 28.627 13.74 49.239 13.74 36.643 0 70.424-23.475 70.424-48.666 0-29.772-15.459-44.659-50.384-60.689-40.651-18.322-96.188-65.842-96.188-121.38v-20.611c0-10.306 8.016-18.322 18.322-18.322h109.928c10.306 0 18.322 8.016 18.322 18.322 0 13.169 16.603 41.223 43.513 56.681 43.513 24.619 103.059 57.826 103.059 144.853zM879.431 324.961c0-242.76-196.955-439.715-439.715-439.715s-439.715 196.955-439.715 439.715 196.955 439.715 439.715 439.715 439.715-196.955 439.715-439.715z" />
<glyph unicode="&#xf05a;" glyph-name="info-circle" d="M586.288 50.138v91.607c0 10.306-8.016 18.322-18.322 18.322h-54.965v293.143c0 10.306-8.016 18.322-18.322 18.322h-183.215c-10.306 0-18.322-8.016-18.322-18.322v-91.607c0-10.306 8.016-18.322 18.322-18.322h54.965v-183.215h-54.965c-10.306 0-18.322-8.016-18.322-18.322v-91.607c0-10.306 8.016-18.322 18.322-18.322h256.5c10.306 0 18.322 8.016 18.322 18.322zM513.001 563.139v91.607c0 10.306-8.016 18.322-18.322 18.322h-109.928c-10.306 0-18.322-8.016-18.322-18.322v-91.607c0-10.306 8.016-18.322 18.322-18.322h109.928c10.306 0 18.322 8.016 18.322 18.322zM879.431 324.961c0-242.76-196.955-439.715-439.715-439.715s-439.715 196.955-439.715 439.715 196.955 439.715 439.715 439.715 439.715-196.955 439.715-439.715z" />
<glyph unicode="&#xf05b;" glyph-name="crosshairs" d="M685.338 251.674h-62.408c-20.040 0-36.643 16.603-36.643 36.643v73.286c0 20.040 16.603 36.643 36.643 36.643h62.408c-24.619 82.447-89.89 147.717-172.336 172.336v-62.408c0-20.040-16.603-36.643-36.643-36.643h-73.286c-20.040 0-36.643 16.603-36.643 36.643v62.408c-82.447-24.619-147.717-89.89-172.336-172.336h62.408c20.040 0 36.643-16.603 36.643-36.643v-73.286c0-20.040-16.603-36.643-36.643-36.643h-62.408c24.619-82.447 89.89-147.717 172.336-172.336v62.408c0 20.040 16.603 36.643 36.643 36.643h73.286c20.040 0 36.643-16.603 36.643-36.643v-62.408c82.447 24.619 147.717 89.89 172.336 172.336zM879.431 361.603v-73.286c0-20.040-16.603-36.643-36.643-36.643h-81.874c-28.054-123.097-124.815-219.858-247.913-247.913v-81.874c0-20.040-16.603-36.643-36.643-36.643h-73.286c-20.040 0-36.643 16.603-36.643 36.643v81.874c-123.097 28.054-219.858 124.815-247.913 247.913h-81.874c-20.040 0-36.643 16.603-36.643 36.643v73.286c0 20.040 16.603 36.643 36.643 36.643h81.874c28.054 123.097 124.815 219.858 247.913 247.913v81.874c0 20.040 16.603 36.643 36.643 36.643h73.286c20.040 0 36.643-16.603 36.643-36.643v-81.874c123.097-28.054 219.858-124.815 247.913-247.913h81.874c20.040 0 36.643-16.603 36.643-36.643z" />
<glyph unicode="&#xf05c;" glyph-name="times-circle-o" d="M628.083 220.185l-83.593-83.593c-7.443-7.443-18.893-7.443-26.338 0l-78.44 78.44-78.44-78.44c-7.443-7.443-18.893-7.443-26.338 0l-83.593 83.593c-7.443 7.443-7.443 18.893 0 26.338l78.44 78.44-78.44 78.44c-7.443 7.443-7.443 18.893 0 26.338l83.593 83.593c7.443 7.443 18.893 7.443 26.338 0l78.44-78.44 78.44 78.44c7.443 7.443 18.893 7.443 26.338 0l83.593-83.593c7.443-7.443 7.443-18.893 0-26.338l-78.44-78.44 78.44-78.44c7.443-7.443 7.443-18.893 0-26.338zM751.181 324.961c0 171.765-139.701 311.465-311.465 311.465s-311.465-139.701-311.465-311.465 139.701-311.465 311.465-311.465 311.465 139.701 311.465 311.465zM879.431 324.961c0-242.76-196.955-439.715-439.715-439.715s-439.715 196.955-439.715 439.715 196.955 439.715 439.715 439.715 439.715-196.955 439.715-439.715z" />
<glyph unicode="&#xf05d;" glyph-name="check-circle-o" d="M670.452 372.482l-241.615-241.615c-14.314-14.314-37.215-14.314-51.529 0l-168.328 168.328c-14.314 14.314-14.314 37.215 0 51.529l58.4 58.4c14.314 14.314 37.215 14.314 51.529 0l84.164-84.164 157.451 157.451c14.314 14.314 37.215 14.314 51.529 0l58.4-58.4c14.314-14.314 14.314-37.215 0-51.529zM751.181 324.961c0 171.765-139.701 311.465-311.465 311.465s-311.465-139.701-311.465-311.465 139.701-311.465 311.465-311.465 311.465 139.701 311.465 311.465zM879.431 324.961c0-242.76-196.955-439.715-439.715-439.715s-439.715 196.955-439.715 439.715 196.955 439.715 439.715 439.715 439.715-196.955 439.715-439.715z" />
<glyph unicode="&#xf05e;" glyph-name="ban" d="M751.181 326.677c0 62.408-18.322 120.234-49.812 168.901l-431.7-431.128c49.239-32.062 107.639-50.957 170.046-50.957 171.765 0 311.465 140.274 311.465 313.183zM179.207 155.486l432.273 431.7c-49.239 33.207-108.212 52.102-171.765 52.102-171.765 0-311.465-140.274-311.465-312.61 0-63.553 18.893-121.952 50.957-171.191zM879.431 326.677c0-243.905-196.955-441.433-439.715-441.433s-439.715 197.529-439.715 441.433c0 243.332 196.955 440.861 439.715 440.861s439.715-197.529 439.715-440.861z" />
<glyph unicode="&#xf060;" glyph-name="arrow-left" horiz-adv-x="843" d="M842.788 324.961v-73.286c0-38.933-25.764-73.286-66.987-73.286h-403.073l167.757-168.328c13.74-13.169 21.756-32.062 21.756-51.529s-8.016-38.36-21.756-51.529l-42.941-43.513c-13.169-13.169-32.062-21.185-51.529-21.185s-38.36 8.016-52.102 21.185l-372.728 373.3c-13.169 13.169-21.185 32.062-21.185 51.529s8.016 38.36 21.185 52.102l372.728 372.155c13.74 13.74 32.635 21.756 52.102 21.756s37.788-8.016 51.529-21.756l42.941-42.368c13.74-13.74 21.756-32.635 21.756-52.102s-8.016-38.36-21.756-52.102l-167.757-167.757h403.073c41.223 0 66.987-34.354 66.987-73.286z" />
<glyph unicode="&#xf061;" glyph-name="arrow-right" horiz-adv-x="843" d="M842.788 288.318c0-19.467-7.443-38.36-21.185-52.102l-372.728-372.728c-13.74-13.169-32.635-21.185-52.102-21.185s-37.788 8.016-51.529 21.185l-42.941 42.941c-13.74 13.74-21.756 32.635-21.756 52.102s8.016 38.36 21.756 52.102l167.757 167.757h-403.073c-41.223 0-66.987 34.354-66.987 73.286v73.286c0 38.933 25.764 73.286 66.987 73.286h403.073l-167.757 168.328c-13.74 13.169-21.756 32.062-21.756 51.529s8.016 38.36 21.756 51.529l42.941 42.941c13.74 13.74 32.062 21.756 51.529 21.756s38.36-8.016 52.102-21.756l372.728-372.728c13.74-13.169 21.185-32.062 21.185-51.529z" />
<glyph unicode="&#xf062;" glyph-name="arrow-up" horiz-adv-x="892" d="M892.027 282.020c0-19.467-8.016-37.788-21.185-51.529l-42.941-42.941c-13.74-13.74-32.635-21.756-52.102-21.756s-38.36 8.016-51.529 21.756l-168.328 167.757v-403.073c0-41.223-34.354-66.987-73.286-66.987h-73.286c-38.933 0-73.286 25.764-73.286 66.987v403.073l-168.328-167.757c-13.169-13.74-32.062-21.756-51.529-21.756s-38.36 8.016-51.529 21.756l-42.941 42.941c-13.74 13.74-21.756 32.062-21.756 51.529s8.016 38.36 21.756 52.102l372.728 372.728c13.169 13.74 32.062 21.185 51.529 21.185s38.36-7.443 52.102-21.185l372.728-372.728c13.169-13.74 21.185-32.635 21.185-52.102z" />
<glyph unicode="&#xf063;" glyph-name="arrow-down" horiz-adv-x="892" d="M892.027 361.603c0-19.467-8.016-38.36-21.185-51.529l-372.728-373.3c-13.74-13.169-32.635-21.185-52.102-21.185s-38.36 8.016-51.529 21.185l-372.728 373.3c-13.74 13.169-21.756 32.062-21.756 51.529s8.016 38.36 21.756 52.102l42.368 42.941c13.74 13.169 32.635 21.185 52.102 21.185s38.36-8.016 51.529-21.185l168.328-168.328v403.073c0 40.078 33.207 73.286 73.286 73.286h73.286c40.078 0 73.286-33.207 73.286-73.286v-403.073l168.328 168.328c13.169 13.169 32.062 21.185 51.529 21.185s38.36-8.016 52.102-21.185l42.941-42.941c13.169-13.74 21.185-32.635 21.185-52.102z" />
<glyph unicode="&#xf064;" glyph-name="share" d="M1026.003 471.533c0-9.733-4.008-18.893-10.879-25.764l-293.143-293.143c-6.871-6.871-16.032-10.879-25.764-10.879-20.040 0-36.643 16.603-36.643 36.643v146.572h-128.25c-246.768 0-408.798-47.521-408.798-320.626 0-23.475 1.145-46.949 2.863-70.424 0.573-9.161 2.863-19.467 2.863-28.627 0-10.879-6.871-20.040-18.322-20.040-8.016 0-12.024 4.008-16.032 9.733-8.587 12.024-14.887 30.346-21.185 43.513-32.635 73.286-72.713 178.062-72.713 258.218 0 64.126 6.298 129.968 30.346 190.658 79.585 197.529 313.183 230.736 500.978 230.736h128.25v146.572c0 20.040 16.603 36.643 36.643 36.643 9.733 0 18.893-4.008 25.764-10.879l293.143-293.143c6.871-6.871 10.879-16.032 10.879-25.764z" />
<glyph unicode="&#xf065;" glyph-name="expand" d="M432.273 233.352c0-4.579-2.29-9.733-5.726-13.169l-190.085-190.085 82.447-82.447c6.871-6.871 10.879-16.032 10.879-25.764 0-20.040-16.603-36.643-36.643-36.643h-256.5c-20.040 0-36.643 16.603-36.643 36.643v256.5c0 20.040 16.603 36.643 36.643 36.643 9.733 0 18.893-4.008 25.764-10.879l82.447-82.447 190.085 190.085c3.435 3.435 8.587 5.726 13.169 5.726s9.733-2.29 13.169-5.726l65.271-65.271c3.435-3.435 5.726-8.587 5.726-13.169zM879.431 728.033v-256.5c0-20.040-16.603-36.643-36.643-36.643-9.733 0-18.893 4.008-25.764 10.879l-82.447 82.447-190.085-190.085c-3.435-3.435-8.587-5.726-13.169-5.726s-9.733 2.29-13.169 5.726l-65.271 65.271c-3.435 3.435-5.726 8.587-5.726 13.169s2.29 9.733 5.726 13.169l190.085 190.085-82.447 82.447c-6.871 6.871-10.879 16.032-10.879 25.764 0 20.040 16.603 36.643 36.643 36.643h256.5c20.040 0 36.643-16.603 36.643-36.643z" />
<glyph unicode="&#xf066;" glyph-name="compress" horiz-adv-x="865" d="M432.273 288.318v-256.5c0-20.040-16.603-36.643-36.643-36.643-9.733 0-18.893 4.008-25.764 10.879l-82.447 82.447-190.085-190.085c-3.435-3.435-8.587-5.726-13.169-5.726s-9.733 2.29-13.169 5.726l-65.271 65.271c-3.435 3.435-5.726 8.587-5.726 13.169s2.29 9.733 5.726 13.169l190.085 190.085-82.447 82.447c-6.871 6.871-10.879 16.032-10.879 25.764 0 20.040 16.603 36.643 36.643 36.643h256.5c20.040 0 36.643-16.603 36.643-36.643zM864.544 673.069c0-4.579-2.29-9.733-5.726-13.169l-190.085-190.085 82.447-82.447c6.871-6.871 10.879-16.032 10.879-25.764 0-20.040-16.603-36.643-36.643-36.643h-256.5c-20.040 0-36.643 16.603-36.643 36.643v256.5c0 20.040 16.603 36.643 36.643 36.643 9.733 0 18.893-4.008 25.764-10.879l82.447-82.447 190.085 190.085c3.435 3.435 8.587 5.726 13.169 5.726s9.733-2.29 13.169-5.726l65.271-65.271c3.435-3.435 5.726-8.587 5.726-13.169z" />
<glyph unicode="&#xf067;" glyph-name="plus" horiz-adv-x="807" d="M806.144 416.568v-109.928c0-30.346-24.619-54.965-54.965-54.965h-238.179v-238.179c0-30.346-24.619-54.965-54.965-54.965h-109.928c-30.346 0-54.965 24.619-54.965 54.965v238.179h-238.179c-30.346 0-54.965 24.619-54.965 54.965v109.928c0 30.346 24.619 54.965 54.965 54.965h238.179v238.179c0 30.346 24.619 54.965 54.965 54.965h109.928c30.346 0 54.965-24.619 54.965-54.965v-238.179h238.179c30.346 0 54.965-24.619 54.965-54.965z" />
<glyph unicode="&#xf068;" glyph-name="minus" horiz-adv-x="807" d="M806.144 416.568v-109.928c0-30.346-24.619-54.965-54.965-54.965h-696.216c-30.346 0-54.965 24.619-54.965 54.965v109.928c0 30.346 24.619 54.965 54.965 54.965h696.216c30.346 0 54.965-24.619 54.965-54.965z" />
<glyph unicode="&#xf069;" glyph-name="asterisk" horiz-adv-x="818" d="M780.954 236.788c34.925-20.040 46.949-65.271 26.909-100.196l-36.643-62.98c-20.040-34.925-65.271-46.949-100.196-26.909l-152.298 87.6v-175.772c0-40.078-33.207-73.286-73.286-73.286h-73.286c-40.078 0-73.286 33.207-73.286 73.286v175.772l-152.298-87.6c-34.925-20.040-80.156-8.016-100.196 26.909l-36.643 62.98c-20.040 34.925-8.016 80.156 26.909 100.196l152.298 88.172-152.298 88.172c-34.925 20.040-46.949 65.271-26.909 100.196l36.643 62.98c20.040 34.925 65.271 46.949 100.196 26.909l152.298-87.6v175.772c0 40.078 33.207 73.286 73.286 73.286h73.286c40.078 0 73.286-33.207 73.286-73.286v-175.772l152.298 87.6c34.925 20.040 80.156 8.016 100.196-26.909l36.643-62.98c20.040-34.925 8.016-80.156-26.909-100.196l-152.298-88.172z" />
<glyph unicode="&#xf06a;" glyph-name="exclamation-circle" d="M439.715 764.676c242.76 0 439.715-196.955 439.715-439.715s-196.955-439.715-439.715-439.715-439.715 196.955-439.715 439.715 196.955 439.715 439.715 439.715zM513.001 50.711v108.783c0 10.306-8.016 18.893-17.748 18.893h-109.928c-10.306 0-18.893-8.587-18.893-18.893v-108.783c0-10.306 8.587-18.893 18.893-18.893h109.928c9.733 0 17.748 8.587 17.748 18.893zM511.856 247.666l10.306 355.551c0 4.008-1.718 8.016-5.726 10.306-3.435 2.863-8.587 4.579-13.74 4.579h-125.96c-5.153 0-10.306-1.718-13.74-4.579-4.008-2.29-5.726-6.298-5.726-10.306l9.733-355.551c0-8.016 8.587-14.314 19.467-14.314h105.92c10.306 0 18.893 6.298 19.467 14.314z" />
<glyph unicode="&#xf06b;" glyph-name="gift" d="M531.323 61.589v409.943h-183.215v-409.943c0-20.040 16.603-29.772 36.643-29.772h109.928c20.040 0 36.643 9.733 36.643 29.772zM270.242 544.818h111.647l-72.14 92.18c-6.298 7.443-20.040 17.748-39.507 17.748-30.346 0-54.965-24.619-54.965-54.965s24.619-54.965 54.965-54.965zM664.154 599.783c0 30.346-24.619 54.965-54.965 54.965-19.467 0-33.207-10.306-39.507-17.748l-71.569-92.18h111.073c30.346 0 54.965 24.619 54.965 54.965zM879.431 453.211v-183.215c0-10.306-8.016-18.322-18.322-18.322h-54.965v-238.179c0-30.346-24.619-54.965-54.965-54.965h-622.93c-30.346 0-54.965 24.619-54.965 54.965v238.179h-54.965c-10.306 0-18.322 8.016-18.322 18.322v183.215c0 10.306 8.016 18.322 18.322 18.322h251.921c-70.995 0-128.25 57.255-128.25 128.25s57.255 128.25 128.25 128.25c38.36 0 73.858-16.032 96.188-44.086l73.286-94.47 73.286 94.47c22.33 28.054 57.826 44.086 96.188 44.086 70.995 0 128.25-57.255 128.25-128.25s-57.255-128.25-128.25-128.25h251.921c10.306 0 18.322-8.016 18.322-18.322z" />
<glyph unicode="&#xf06c;" glyph-name="leaf" d="M732.86 434.889c0 20.040-16.603 36.643-36.643 36.643-202.682 0-333.221-84.737-465.48-230.736-6.871-7.443-10.879-15.459-10.879-25.764 0-20.040 16.603-36.643 36.643-36.643 10.306 0 18.322 4.008 25.764 10.879 28.054 25.193 53.247 52.673 80.729 78.44 103.631 93.325 192.376 130.54 333.221 130.54 20.040 0 36.643 16.603 36.643 36.643zM1026.003 548.254c0-36.643-4.008-73.858-11.451-110.502-36.643-178.062-151.152-293.717-310.32-372.728-77.293-38.933-163.749-61.834-250.776-61.834-54.965 0-111.647 9.161-163.749 26.909-27.483 9.161-82.447 45.231-105.349 45.231-28.627 0-62.98-116.799-112.791-116.799-36.070 0-46.949 17.748-62.408 44.086-5.153 9.733-9.161 13.169-9.161 25.193 0 59.545 113.365 105.92 113.365 139.129 0 5.153-14.887 35.499-17.177 46.949-3.435 19.467-5.153 39.507-5.153 59.545 0 182.070 144.853 312.038 307.457 365.857 117.373 38.933 367.002-6.298 446.586 69.279 31.491 29.2 46.949 56.11 95.043 56.11 64.697 0 85.882-167.757 85.882-216.422z" />
<glyph unicode="&#xf06d;" glyph-name="fire" horiz-adv-x="807" d="M806.144-133.077v-36.643c0-9.733-8.587-18.322-18.322-18.322h-769.502c-9.733 0-18.322 8.587-18.322 18.322v36.643c0 9.733 8.587 18.322 18.322 18.322h769.502c9.733 0 18.322-8.587 18.322-18.322zM659.573 471.533c0-219.285-256.5-238.752-256.5-384.751 0-40.078 20.040-93.325 38.36-128.25l-2.29 0.573 0.573-0.573c-158.022 72.713-293.143 172.909-293.143 366.429 0 219.285 256.5 238.752 256.5 384.751 0 40.078-20.040 93.325-37.788 128.25l1.718-0.573-0.573 0.573c158.022-72.713 293.143-172.909 293.143-366.429z" />
<glyph unicode="&#xf06e;" glyph-name="eye" d="M952.716 288.318c-54.392 84.164-128.823 156.305-218.14 202.108 22.901-38.933 34.925-83.593 34.925-128.823 0-141.419-115.081-256.5-256.5-256.5s-256.5 115.081-256.5 256.5c0 45.231 12.024 89.89 34.925 128.823-89.317-45.804-163.749-117.944-218.14-202.108 97.906-151.152 255.929-256.5 439.715-256.5s341.81 105.349 439.715 256.5zM540.484 508.176c0 14.887-12.595 27.483-27.483 27.483-95.615 0-174.054-78.44-174.054-174.054 0-14.887 12.595-27.483 27.483-27.483s27.483 12.595 27.483 27.483c0 65.271 53.82 119.089 119.089 119.089 14.887 0 27.483 12.595 27.483 27.483zM1026.003 288.318c0-14.314-4.579-27.483-11.451-39.507-105.349-173.481-298.296-290.28-501.55-290.28s-396.203 117.373-501.55 290.28c-6.871 12.024-11.451 25.193-11.451 39.507s4.579 27.483 11.451 39.507c105.349 172.909 298.296 290.28 501.55 290.28s396.203-117.373 501.55-290.28c6.871-12.024 11.451-25.193 11.451-39.507z" />
<glyph unicode="&#xf070;" glyph-name="eye-slash" d="M317.763 73.613l44.659 80.729c-66.416 48.094-105.92 125.387-105.92 207.261 0 45.231 12.024 89.89 34.925 128.823-89.317-45.804-163.749-117.944-218.14-202.108 59.545-92.18 143.709-169.474 244.478-214.705zM540.484 508.176c0 14.887-12.595 27.483-27.483 27.483-95.615 0-174.054-78.44-174.054-174.054 0-14.887 12.595-27.483 27.483-27.483s27.483 12.595 27.483 27.483c0 65.842 53.82 119.089 119.089 119.089 14.887 0 27.483 12.595 27.483 27.483zM748.318 617.531c0-1.145 0-4.008-0.573-5.153-120.807-215.851-240.47-432.845-361.276-648.695l-28.054-50.957c-3.435-5.726-9.733-9.161-16.032-9.161-10.306 0-64.697 33.207-76.721 40.078-5.726 3.435-9.161 9.161-9.161 16.032 0 9.161 19.467 40.078 25.193 49.812-111.073 50.384-204.399 136.266-270.242 239.324-7.443 11.451-11.451 25.193-11.451 39.507 0 13.74 4.008 28.054 11.451 39.507 113.365 174.054 290.28 290.28 501.55 290.28 34.354 0 69.279-3.435 103.059-9.733l30.917 55.537c3.435 5.726 9.161 9.161 16.032 9.161 10.306 0 64.126-33.207 76.148-40.078 5.726-3.435 9.161-9.161 9.161-15.459zM769.502 361.603c0-106.494-65.842-201.537-164.893-239.324l160.313 287.418c2.863-16.032 4.579-32.062 4.579-48.094zM1026.003 288.318c0-14.887-4.008-26.909-11.451-39.507-17.748-29.2-40.078-57.255-62.408-83.019-112.219-128.823-266.807-207.261-439.143-207.261l42.368 75.577c166.612 14.314 308.031 115.655 397.347 254.21-42.368 65.842-96.759 123.671-161.459 168.328l36.070 64.126c70.995-47.521 142.564-119.089 187.223-192.947 7.443-12.595 11.451-24.619 11.451-39.507z" />
<glyph unicode="&#xf071;" glyph-name="exclamation-triangle" d="M586.288 50.711v108.783c0 10.306-8.016 18.893-18.322 18.893h-109.928c-10.306 0-18.322-8.587-18.322-18.893v-108.783c0-10.306 8.016-18.893 18.322-18.893h109.928c10.306 0 18.322 8.587 18.322 18.893zM585.142 264.843l10.306 262.799c0 3.435-1.718 8.016-5.726 10.879-3.435 2.863-8.587 6.298-13.74 6.298h-125.96c-5.153 0-10.306-3.435-13.74-6.298-4.008-2.863-5.726-8.587-5.726-12.024l9.733-261.654c0-7.443 8.587-13.169 19.467-13.169h105.92c10.306 0 18.893 5.726 19.467 13.169zM577.127 799.601l439.715-806.144c12.595-22.33 12.024-49.812-1.145-72.14s-37.215-36.070-62.98-36.070h-879.431c-25.764 0-49.812 13.74-62.98 36.070s-13.74 49.812-1.145 72.14l439.715 806.144c12.595 23.475 37.215 38.36 64.126 38.36s51.529-14.887 64.126-38.36z" />
<glyph unicode="&#xf072;" glyph-name="plane" horiz-adv-x="803" d="M787.824 746.354c36.643-36.643 0-128.25-54.965-183.215l-92.18-92.18 91.607-398.492c1.718-6.871-1.145-14.314-6.871-18.893l-73.286-54.965c-2.863-2.29-6.871-3.435-10.879-3.435-1.145 0-2.29 0-4.008 0.573-5.153 1.145-9.733 4.008-12.024 9.161l-159.741 290.854-148.29-148.29 30.346-111.073c1.718-6.298 0-12.595-4.579-17.748l-54.965-54.965c-3.435-3.435-8.587-5.153-13.169-5.153h-1.145c-5.726 0.573-10.306 2.863-13.74 7.443l-108.212 144.282-144.282 108.212c-4.579 2.863-6.871 8.016-7.443 13.169s1.718 10.306 5.153 14.314l54.965 55.537c3.435 3.435 8.587 5.153 13.169 5.153 1.718 0 3.435 0 4.579-0.573l111.073-30.346 148.29 148.29-290.854 159.741c-5.153 2.863-8.587 8.016-9.733 13.74-0.573 5.153 1.145 11.451 5.153 15.459l73.286 73.286c4.579 4.008 11.451 6.298 17.177 4.579l380.743-91.035 91.607 91.607c54.965 54.965 146.572 91.607 183.215 54.965z" />
<glyph unicode="&#xf073;" glyph-name="calendar" horiz-adv-x="953" d="M73.286-114.755h164.893v164.893h-164.893v-164.893zM274.822-114.755h183.215v164.893h-183.215v-164.893zM73.286 86.781h164.893v183.215h-164.893v-183.215zM274.822 86.781h183.215v183.215h-183.215v-183.215zM73.286 306.639h164.893v164.893h-164.893v-164.893zM494.68-114.755h183.215v164.893h-183.215v-164.893zM274.822 306.639h183.215v164.893h-183.215v-164.893zM714.538-114.755h164.893v164.893h-164.893v-164.893zM494.68 86.781h183.215v183.215h-183.215v-183.215zM293.143 581.461v164.893c0 9.733-8.587 18.322-18.322 18.322h-36.643c-9.733 0-18.322-8.587-18.322-18.322v-164.893c0-9.733 8.587-18.322 18.322-18.322h36.643c9.733 0 18.322 8.587 18.322 18.322zM714.538 86.781h164.893v183.215h-164.893v-183.215zM494.68 306.639h183.215v164.893h-183.215v-164.893zM714.538 306.639h164.893v164.893h-164.893v-164.893zM732.86 581.461v164.893c0 9.733-8.587 18.322-18.322 18.322h-36.643c-9.733 0-18.322-8.587-18.322-18.322v-164.893c0-9.733 8.587-18.322 18.322-18.322h36.643c9.733 0 18.322 8.587 18.322 18.322zM952.716 618.104v-732.86c0-40.078-33.207-73.286-73.286-73.286h-806.144c-40.078 0-73.286 33.207-73.286 73.286v732.86c0 40.078 33.207 73.286 73.286 73.286h73.286v54.965c0 50.384 41.223 91.607 91.607 91.607h36.643c50.384 0 91.607-41.223 91.607-91.607v-54.965h219.858v54.965c0 50.384 41.223 91.607 91.607 91.607h36.643c50.384 0 91.607-41.223 91.607-91.607v-54.965h73.286c40.078 0 73.286-33.207 73.286-73.286z" />
<glyph unicode="&#xf074;" glyph-name="random" d="M381.315 562.568c-32.062-49.239-55.537-102.486-78.44-156.305-33.207 69.279-69.85 138.556-156.305 138.556h-128.25c-10.306 0-18.322 8.016-18.322 18.322v109.928c0 10.306 8.016 18.322 18.322 18.322h128.25c101.913 0 176.917-47.521 234.744-128.823zM1026.003 105.102c0-4.579-1.718-9.733-5.153-13.169l-183.215-183.215c-3.435-3.435-8.587-5.153-13.169-5.153-9.733 0-18.322 8.587-18.322 18.322v109.928c-170.046 0-274.822-20.040-380.743 128.823 31.491 49.239 54.965 102.486 77.866 156.305 33.207-69.279 69.85-138.556 156.305-138.556h146.572v109.928c0 10.306 8.016 18.322 18.322 18.322 5.153 0 9.733-2.29 13.74-5.726l182.642-182.642c3.435-3.435 5.153-8.587 5.153-13.169zM1026.003 618.104c0-4.579-1.718-9.733-5.153-13.169l-183.215-183.215c-3.435-3.435-8.587-5.153-13.169-5.153-9.733 0-18.322 8.016-18.322 18.322v109.928h-146.572c-76.148 0-112.219-52.102-144.282-113.936-16.603-32.062-30.917-65.271-44.659-97.906-63.553-147.717-137.984-301.159-324.061-301.159h-128.25c-10.306 0-18.322 8.016-18.322 18.322v109.928c0 10.306 8.016 18.322 18.322 18.322h128.25c76.148 0 112.219 52.102 144.282 113.936 16.603 32.062 30.917 65.271 44.659 97.906 63.553 147.717 137.984 301.159 324.061 301.159h146.572v109.928c0 10.306 8.016 18.322 18.322 18.322 5.153 0 9.733-2.29 13.74-5.726l182.642-182.642c3.435-3.435 5.153-8.587 5.153-13.169z" />
<glyph unicode="&#xf075;" glyph-name="comment" d="M1026.003 324.961c0-202.682-229.591-366.429-513.001-366.429-28.054 0-56.11 1.718-83.019 4.579-75.003-66.416-164.32-113.365-263.371-138.556-20.611-5.726-42.941-9.733-65.271-12.595-12.595-1.145-24.619 8.016-27.483 21.756v0.573c-2.863 14.314 6.871 22.901 15.459 33.207 36.070 40.651 77.293 75.003 104.204 170.619-117.944 66.987-193.521 170.619-193.521 286.846 0 202.108 229.591 366.429 513.001 366.429s513.001-163.749 513.001-366.429z" />
</font>
</defs>
</svg>
